<?xml version="1.0" encoding="UTF-8"?>
<svg version="1.1" xmlns="http://www.w3.org/2000/svg" viewBox="46.0 16.0 1306.6 401.0" width="1307" height="401" fill="none">
<rect x="46.0" y="16.0" width="1306.6" height="401.0" />
<path d="M0 0 C0.394 -0.001 0.394 -0.001 2.385 -0.009 C5.02 -0.018 7.655 -0.019 10.29 -0.021 C12.181 -0.025 14.072 -0.03 15.963 -0.036 C21.103 -0.049 26.242 -0.055 31.381 -0.06 C34.599 -0.063 37.816 -0.067 41.034 -0.071 C51.119 -0.085 61.205 -0.095 71.29 -0.098 C82.896 -0.103 94.501 -0.12 106.106 -0.149 C115.097 -0.171 124.087 -0.181 133.078 -0.182 C138.437 -0.184 143.796 -0.189 149.154 -0.207 C154.209 -0.224 159.263 -0.226 164.318 -0.217 C166.158 -0.216 167.998 -0.221 169.838 -0.231 C201.081 -0.39 201.081 -0.39 213.237 6.176 C215.124 7.14 215.124 7.14 217.932 8.035 C227.644 11.399 237.796 17.948 245.124 25.14 C245.124 25.8 245.124 26.46 245.124 27.14 C245.742 27.388 246.361 27.635 246.999 27.89 C249.549 29.39 249.886 30.51 251.124 33.14 C251.733 33.741 252.343 34.342 252.971 34.961 C270.255 52.464 272.445 79.641 272.435 102.826 C272.306 111.88 271.067 120.309 269.124 129.14 C268.778 131.138 268.44 133.138 268.124 135.14 C267.464 135.14 266.804 135.14 266.124 135.14 C266.021 135.625 266.021 135.625 265.499 138.078 C264.047 143.093 261.114 146.922 258.124 151.14 C257.03 152.761 255.936 154.382 254.843 156.003 C248.319 165.593 241.567 173.317 232.124 180.14 C231.576 180.541 231.029 180.941 230.465 181.353 C222.514 187.058 214.516 191.092 205.186 194.078 C204.342 194.348 203.498 194.618 202.629 194.897 C199.81 195.734 196.98 196.442 194.124 197.14 C193.613 197.27 193.613 197.27 191.031 197.926 C175.996 201.154 160.638 200.569 145.341 200.548 C141.204 200.546 137.068 200.563 132.931 200.58 C121.562 200.62 110.193 200.632 98.824 200.643 C88.364 200.654 77.905 200.67 67.446 200.711 C62.536 200.729 57.627 200.733 52.717 200.726 C49.666 200.725 46.615 200.735 43.565 200.75 C42.155 200.754 40.745 200.752 39.336 200.746 C25.938 200.687 25.938 200.687 20.124 204.14 C15.506 209.123 14.965 212.448 14.89 219.043 C14.877 219.86 14.864 220.676 14.85 221.518 C14.821 223.295 14.795 225.072 14.77 226.849 C14.729 229.666 14.68 232.483 14.628 235.299 C14.48 243.31 14.337 251.32 14.225 259.331 C14.156 264.229 14.068 269.126 13.969 274.024 C13.934 275.887 13.907 277.751 13.886 279.614 C13.857 282.23 13.804 284.845 13.745 287.461 C13.743 288.224 13.74 288.987 13.737 289.773 C13.585 295.043 12.506 299.946 9.124 304.14 C6.134 305.209 3.347 305.267 0.187 305.27 C-0.79 305.273 -1.768 305.276 -2.775 305.279 C-3.823 305.277 -4.871 305.275 -5.951 305.273 C-7.03 305.274 -8.11 305.275 -9.222 305.276 C-11.501 305.277 -13.78 305.275 -16.058 305.271 C-19.561 305.265 -23.063 305.271 -26.566 305.277 C-28.777 305.277 -30.989 305.275 -33.201 305.273 C-34.255 305.275 -35.309 305.277 -36.395 305.279 C-37.363 305.276 -38.331 305.273 -39.328 305.27 C-40.184 305.269 -41.041 305.268 -41.923 305.267 C-43.876 305.14 -43.876 305.14 -44.876 304.14 C-45.034 302.226 -45.122 300.306 -45.184 298.386 C-45.225 297.13 -45.265 295.875 -45.307 294.581 C-45.347 293.172 -45.385 291.764 -45.423 290.355 C-45.444 289.634 -45.465 288.913 -45.486 288.17 C-46.011 269.602 -46.098 251.031 -46.117 232.457 C-46.122 227.602 -46.147 222.746 -46.175 217.891 C-46.193 214.091 -46.198 210.292 -46.2 206.492 C-46.203 204.7 -46.211 202.908 -46.224 201.116 C-46.344 183.677 -42.987 171.3 -31.599 157.726 C-26.725 153.097 -21.04 150.661 -14.876 148.14 C-14.479 147.966 -14.479 147.966 -12.47 147.086 C-1.058 142.614 12.648 143.988 24.748 143.967 C26.365 143.961 27.981 143.954 29.597 143.947 C33.047 143.932 36.497 143.92 39.947 143.911 C45.407 143.895 50.867 143.871 56.326 143.846 C71.84 143.775 87.355 143.715 102.869 143.664 C111.461 143.635 120.052 143.6 128.644 143.557 C134.068 143.53 139.492 143.512 144.916 143.501 C148.288 143.492 151.66 143.474 155.032 143.455 C156.591 143.447 158.151 143.443 159.711 143.443 C161.845 143.442 163.978 143.428 166.112 143.412 C167.304 143.408 168.496 143.404 169.725 143.399 C174.793 143.013 179.457 141.641 184.018 139.414 C184.663 139.105 185.309 138.795 185.973 138.476 C186.621 138.159 187.269 137.842 187.936 137.515 C194.867 134.14 194.867 134.14 197.124 134.14 C197.394 133.566 197.665 132.991 197.944 132.398 C199.138 130.112 200.504 128.115 201.999 126.015 C208.68 116.042 214.152 101.764 213.651 89.656 C212.378 83.584 209.168 77.82 205.424 72.914 C204.124 71.14 204.124 71.14 204.124 69.14 C203.567 68.893 203.01 68.645 202.436 68.39 C200.124 67.14 200.124 67.14 197.921 65.293 C194.815 62.903 191.567 61.159 188.061 59.453 C187.755 59.299 187.755 59.299 186.208 58.521 C180.005 55.457 175.083 54.99 168.215 54.982 C167.76 54.98 167.76 54.98 165.457 54.967 C162.402 54.952 159.346 54.944 156.291 54.935 C154.103 54.926 151.915 54.916 149.727 54.905 C143.782 54.878 137.836 54.857 131.89 54.837 C125.678 54.815 119.467 54.788 113.256 54.761 C102.828 54.717 92.401 54.676 81.973 54.638 C71.233 54.598 60.493 54.557 49.753 54.513 C49.09 54.51 48.428 54.507 47.746 54.505 C44.425 54.491 41.104 54.477 37.782 54.463 C10.229 54.35 -17.324 54.243 -44.876 54.14 C-44.976 47.571 -44.976 47.571 -43.189 44.398 C-42.824 43.732 -42.459 43.066 -42.083 42.38 C-41.685 41.682 -41.287 40.985 -40.876 40.265 C-40.045 38.76 -39.216 37.253 -38.388 35.746 C-37.967 34.983 -37.546 34.221 -37.112 33.435 C-35.553 30.541 -34.116 27.597 -32.686 24.638 C-26.294 11.428 -26.294 11.428 -21.876 7.14 C-20.886 6.81 -19.896 6.48 -18.876 6.14 C-18.876 5.48 -18.876 4.82 -18.876 4.14 C-12.423 0.689 -7.244 -0.009 0 0 Z " fill="#F67640" transform="translate(890.8763732910156,64.85955810546875)"/>
<path d="M0 0 C10.63 8.619 15.78 21.226 20.938 33.562 C22.066 36.22 23.202 38.874 24.34 41.527 C24.487 41.871 24.487 41.871 25.231 43.607 C28.696 51.67 32.34 59.649 36 67.625 C36.339 68.365 36.679 69.106 37.028 69.868 C41.994 80.696 47.024 91.494 52.064 102.287 C56.876 112.637 61.482 123.076 66.091 133.518 C70.85 144.288 75.768 154.952 80.917 165.542 C84.238 172.381 87.414 179.269 90.507 186.213 C93.687 193.34 96.958 200.423 100.25 207.5 C100.799 208.68 101.347 209.86 101.913 211.075 C103.608 214.717 105.304 218.359 107 222 C120.278 250.5 120.278 250.5 125.952 263.229 C127.616 266.957 129.305 270.667 131.07 274.348 C131.397 275.03 131.723 275.713 132.059 276.417 C132.929 278.226 133.808 280.031 134.688 281.836 C135.978 284.948 136.506 287.685 137 291 C129.559 291.093 122.118 291.164 114.676 291.207 C111.22 291.228 107.764 291.256 104.308 291.302 C100.329 291.354 96.35 291.373 92.371 291.391 C91.139 291.411 89.906 291.432 88.636 291.453 C81.86 291.455 77.465 291.149 72 287 C65.054 278.904 61.622 267.185 57.648 257.441 C55.153 251.334 52.543 245.284 49.875 239.25 C49.43 238.243 48.985 237.236 48.526 236.198 C47.02 232.797 45.51 229.399 44 226 C43.382 224.608 42.764 223.216 42.146 221.823 C38.747 214.166 35.344 206.51 31.938 198.855 C29.492 193.361 27.054 187.865 24.625 182.363 C20.415 172.837 16.204 163.323 11.688 153.938 C1.03 131.738 -8.51 108.981 -18.076 86.295 C-18.865 84.424 -19.655 82.553 -20.446 80.683 C-21.511 78.159 -22.571 75.633 -23.626 73.104 C-24.154 71.849 -24.683 70.595 -25.211 69.34 C-25.674 68.232 -26.137 67.125 -26.615 65.984 C-29.43 59.919 -32.814 54.911 -39 52 C-40.224 52.938 -41.428 53.902 -42.625 54.875 C-43.298 55.409 -43.971 55.942 -44.664 56.492 C-51.144 63.449 -54.645 72.372 -58.188 81.062 C-59.153 83.387 -60.121 85.712 -61.09 88.035 C-61.333 88.619 -61.333 88.619 -62.562 91.575 C-64.732 96.743 -66.983 101.874 -69.25 107 C-69.692 108.002 -70.135 109.003 -70.59 110.035 C-71.537 112.176 -72.484 114.316 -73.431 116.456 C-76.153 122.605 -78.869 128.758 -81.585 134.91 C-82.558 137.115 -83.533 139.32 -84.507 141.525 C-87.773 148.919 -91.01 156.323 -94.201 163.75 C-97.857 172.249 -101.687 180.591 -105.891 188.832 C-113.569 203.913 -120.55 219.327 -127.435 234.782 C-130.66 242.02 -133.933 249.225 -137.324 256.387 C-138.653 259.252 -139.941 262.126 -141.207 265.02 C-141.597 265.906 -141.988 266.792 -142.39 267.705 C-143.144 269.421 -143.891 271.141 -144.63 272.864 C-151.483 288.423 -151.483 288.423 -158 291 C-160.759 291.241 -160.759 291.241 -163.962 291.227 C-164.562 291.227 -164.562 291.227 -167.601 291.227 C-168.893 291.216 -170.185 291.206 -171.516 291.195 C-172.855 291.192 -174.195 291.189 -175.534 291.187 C-179.052 291.179 -182.57 291.159 -186.088 291.137 C-189.681 291.117 -193.274 291.108 -196.867 291.098 C-203.912 291.076 -210.956 291.042 -218 291 C-216.566 286.572 -214.88 282.581 -212.75 278.438 C-208.794 270.653 -204.978 262.803 -201.188 254.938 C-200.885 254.309 -200.582 253.681 -200.27 253.034 C-195.868 243.901 -191.484 234.76 -187.118 225.61 C-184.676 220.492 -182.219 215.381 -179.746 210.277 C-174.511 199.467 -169.327 188.649 -164.437 177.678 C-156.62 160.148 -148.424 142.807 -140 125.562 C-134.397 114.091 -129.031 102.548 -123.859 90.874 C-119.598 81.273 -115.174 71.757 -110.685 62.261 C-107.034 54.537 -103.439 46.795 -99.961 38.992 C-99.628 38.247 -99.294 37.503 -98.951 36.735 C-97.35 33.157 -95.759 29.576 -94.186 25.985 C-86.358 8.337 -76.28 -3.556 -58.305 -11.137 C-37.6 -18.331 -17.198 -12.408 0 0 Z " fill="#0A0D12" transform="translate(312,79)"/>
<path d="M0 0 C0.52 -0.001 0.52 -0.001 3.149 -0.006 C4.289 -0.003 5.429 -0 6.603 0.003 C7.816 0.002 9.028 0.001 10.277 0 C13.642 -0.001 17.008 0.002 20.374 0.007 C24.003 0.011 27.632 0.01 31.261 0.009 C37.55 0.009 43.838 0.012 50.126 0.017 C59.218 0.025 68.309 0.028 77.401 0.029 C92.151 0.031 106.901 0.038 121.652 0.048 C135.981 0.057 150.311 0.064 164.64 0.068 C165.081 0.068 165.081 0.068 167.316 0.069 C171.746 0.07 176.176 0.071 180.607 0.073 C217.366 0.083 254.126 0.101 290.885 0.123 C290.73 2.69 290.574 5.257 290.417 7.824 C290.395 8.185 290.395 8.185 290.285 10.015 C289.398 24.431 287.422 40.338 276.448 50.936 C271.06 55.507 261.236 54.282 254.554 54.313 C253.551 54.321 252.548 54.329 251.515 54.338 C249.352 54.355 247.189 54.37 245.025 54.383 C241.605 54.405 238.184 54.432 234.764 54.46 C226.277 54.53 217.79 54.589 209.303 54.649 C202.115 54.7 194.926 54.755 187.738 54.815 C184.362 54.842 180.986 54.862 177.61 54.883 C175.554 54.9 173.497 54.916 171.44 54.934 C170.969 54.936 170.969 54.936 168.582 54.946 C167.724 54.955 166.866 54.963 165.982 54.972 C165.235 54.977 164.487 54.982 163.717 54.987 C161.885 55.123 161.885 55.123 159.885 56.123 C158.954 58.849 158.758 61.376 158.752 64.24 C158.748 65.057 158.744 65.873 158.739 66.714 C158.74 67.606 158.74 68.497 158.74 69.416 C158.739 69.892 158.739 69.892 158.73 72.299 C158.719 75.495 158.715 78.691 158.711 81.886 C158.705 84.174 158.698 86.463 158.691 88.751 C158.677 93.682 158.665 98.613 158.655 103.544 C158.64 111.338 158.616 119.131 158.59 126.925 C158.555 137.85 158.522 148.774 158.492 159.698 C158.491 160.045 158.491 160.045 158.486 161.799 C158.46 171.639 158.436 181.478 158.413 191.317 C158.412 192.01 158.41 192.703 158.408 193.417 C158.407 194.109 158.405 194.801 158.403 195.514 C158.377 207.053 158.342 218.592 158.302 230.131 C158.275 237.882 158.257 245.633 158.246 253.384 C158.236 258.202 158.219 263.021 158.199 267.839 C158.192 270.077 158.188 272.315 158.187 274.552 C158.186 277.603 158.173 280.653 158.157 283.703 C158.159 284.592 158.162 285.482 158.165 286.398 C158.107 293.308 156.85 298.02 151.885 303.123 C134.797 308.819 115.897 305.123 97.885 305.123 C97.885 222.293 97.885 139.463 97.885 54.123 C51.685 54.123 5.485 54.123 -42.115 54.123 C-39.675 46.803 -37.046 39.709 -34.177 32.561 C-33.748 31.476 -33.318 30.391 -32.875 29.273 C-24.239 7.692 -24.239 7.692 -13.427 2.748 C-8.873 0.887 -4.933 -0.002 0 0 Z " fill="#08090D" transform="translate(488.114933013916,64.87695217132568)"/>
<path d="M0 0 C0.33 0 0.66 0 1 0 C1 2.97 1 5.94 1 9 C0.34 9 -0.32 9 -1 9 C-1.027 10.75 -1.046 12.5 -1.062 14.25 C-1.068 14.737 -1.068 14.737 -1.098 17.203 C-0.982 20.505 -0.33 23.111 0.812 26.188 C1.105 30.58 -0.805 34.246 -3 38 C-3.33 38.165 -3.33 38.165 -5 39 C-5.66 38.34 -6.32 37.68 -7 37 C-7 35.68 -7 34.36 -7 33 C-7.619 33.66 -8.237 34.32 -8.875 35 C-11 37 -11 37 -13 37 C-13 37.66 -13 38.32 -13 39 C-13.99 39 -14.98 39 -16 39 C-16.33 39.99 -16.66 40.98 -17 42 C-17.66 41.67 -18.32 41.34 -19 41 C-19.33 41.66 -19.66 42.32 -20 43 C-23.062 43.625 -23.062 43.625 -26 44 C-25.67 44.66 -25.34 45.32 -25 46 C-26.134 46.309 -27.269 46.619 -28.438 46.938 C-32 48 -32 48 -33 49 C-35.325 49.424 -37.661 49.79 -40 50.125 C-41.279 50.313 -42.557 50.501 -43.875 50.695 C-44.906 50.796 -45.938 50.896 -47 51 C-47.33 50.67 -47.66 50.34 -48 50 C-49.504 49.907 -51.013 49.883 -52.52 49.886 C-53.481 49.887 -54.442 49.887 -55.432 49.887 C-55.954 49.889 -55.954 49.889 -58.598 49.902 C-59.662 49.904 -60.726 49.905 -61.822 49.907 C-65.235 49.912 -68.649 49.925 -72.062 49.938 C-74.37 49.943 -76.678 49.947 -78.986 49.951 C-84.658 49.962 -90.329 49.979 -96 50 C-96 50.66 -96 51.32 -96 52 C-95.34 52 -94.68 52 -94 52 C-94 52.66 -94 53.32 -94 54 C-95.98 54.165 -95.98 54.165 -106 55 C-106.33 55.99 -106.66 56.98 -107 58 C-107.627 58.004 -107.627 58.004 -110.801 58.025 C-122.616 58.102 -134.432 58.19 -146.247 58.288 C-152.322 58.337 -158.396 58.384 -164.471 58.422 C-170.332 58.459 -176.194 58.505 -182.055 58.558 C-184.292 58.577 -186.529 58.592 -188.767 58.603 C-191.898 58.62 -195.029 58.649 -198.161 58.681 C-199.087 58.683 -200.014 58.685 -200.968 58.688 C-205.466 58.746 -208.878 59.008 -213 61 C-215.765 60.971 -218.257 60.465 -221 60 C-220.67 60.99 -220.34 61.98 -220 63 C-221.875 62.688 -221.875 62.688 -224 62 C-224.66 61.01 -225.32 60.02 -226 59 C-226.495 59.66 -226.99 60.32 -227.5 61 C-231.103 63.883 -233.47 63.302 -238 63 C-238.99 64.98 -239.98 66.96 -241 69 C-240.34 69 -239.68 69 -239 69 C-239.114 70.48 -239.241 71.959 -239.375 73.438 C-239.445 74.261 -239.514 75.085 -239.586 75.934 C-239.723 76.616 -239.859 77.297 -240 78 C-240.33 78.165 -240.33 78.165 -242 79 C-242 77.68 -242 76.36 -242 75 C-243.32 75 -244.64 75 -246 75 C-246 73.02 -246 71.04 -246 69 C-247.938 69.562 -247.938 69.562 -250 71 C-250.374 73.327 -250.708 75.661 -251 78 C-251.495 78.33 -251.495 78.33 -254 80 C-254.512 81.945 -254.512 81.945 -254.688 84.125 C-254.791 85.404 -254.894 86.683 -255 88 C-255.33 88 -255.66 88 -256 88 C-256.33 127.27 -256.66 166.54 -257 207 C-257.33 207 -257.66 207 -258 207 C-258.903 183.105 -259.217 159.228 -259.24 135.317 C-259.246 130.461 -259.27 125.606 -259.298 120.751 C-259.317 116.951 -259.322 113.151 -259.324 109.351 C-259.327 107.559 -259.334 105.767 -259.348 103.975 C-259.468 86.537 -256.11 74.16 -244.723 60.586 C-239.848 55.956 -234.163 53.52 -228 51 C-227.206 50.652 -226.412 50.304 -225.594 49.945 C-214.181 45.474 -200.475 46.847 -188.375 46.826 C-186.759 46.82 -185.143 46.813 -183.526 46.806 C-180.076 46.792 -176.626 46.78 -173.176 46.77 C-167.717 46.755 -162.257 46.731 -156.797 46.705 C-141.283 46.634 -125.769 46.574 -110.255 46.523 C-101.663 46.495 -93.071 46.459 -84.48 46.417 C-79.056 46.39 -73.632 46.372 -68.208 46.361 C-64.836 46.351 -61.464 46.334 -58.092 46.314 C-56.532 46.307 -54.973 46.303 -53.413 46.302 C-51.279 46.301 -49.145 46.288 -47.012 46.272 C-45.819 46.268 -44.627 46.263 -43.399 46.259 C-38.331 45.873 -33.666 44.501 -29.105 42.273 C-28.46 41.964 -27.815 41.655 -27.15 41.336 C-26.503 41.019 -25.855 40.702 -25.188 40.375 C-18.257 37 -18.257 37 -16 37 C-15.729 36.425 -15.459 35.85 -15.18 35.258 C-13.985 32.972 -12.62 30.974 -11.125 28.875 C-5.236 20.084 -2.739 10.11 0 0 Z " fill="#F47A46" transform="translate(1104,162)"/>
<path d="M0 0 C0.394 -0.001 0.394 -0.001 2.385 -0.009 C5.02 -0.018 7.655 -0.019 10.29 -0.021 C12.181 -0.025 14.072 -0.03 15.963 -0.036 C21.103 -0.049 26.242 -0.055 31.381 -0.06 C34.599 -0.063 37.816 -0.067 41.034 -0.071 C51.119 -0.085 61.205 -0.095 71.29 -0.098 C82.896 -0.103 94.501 -0.12 106.106 -0.149 C115.097 -0.171 124.087 -0.181 133.078 -0.182 C138.437 -0.184 143.796 -0.189 149.154 -0.207 C154.209 -0.224 159.263 -0.226 164.318 -0.217 C166.158 -0.216 167.998 -0.221 169.838 -0.231 C179.151 -0.278 188.217 0.066 197.435 1.475 C197.82 1.533 197.82 1.533 199.77 1.828 C204.607 2.649 208.686 4.046 213.124 6.14 C213.124 6.47 213.124 6.8 213.124 7.14 C211.644 7 210.165 6.853 208.686 6.703 C207.862 6.622 207.039 6.541 206.19 6.457 C204.124 6.14 204.124 6.14 203.124 5.14 C201.172 5.14 199.22 5.144 197.268 5.172 C194.488 5.131 191.845 4.685 189.124 4.14 C189.124 3.48 189.124 2.82 189.124 2.14 C125.764 2.47 62.404 2.8 -2.876 3.14 C1.869 3.734 6.267 4.271 10.989 4.438 C12.069 4.478 13.15 4.517 14.263 4.559 C15.403 4.597 16.543 4.636 17.717 4.676 C18.311 4.697 18.311 4.697 21.315 4.806 C25.085 4.942 28.854 5.072 32.624 5.203 C35.189 5.294 37.754 5.386 40.319 5.478 C46.587 5.703 52.855 5.923 59.124 6.14 C59.124 6.47 59.124 6.8 59.124 7.14 C57.144 7.14 55.164 7.14 53.124 7.14 C53.124 7.8 53.124 8.46 53.124 9.14 C54.232 9.117 55.341 9.094 56.483 9.07 C57.947 9.051 59.41 9.033 60.874 9.015 C61.238 9.007 61.238 9.007 63.085 8.965 C67.259 8.927 69.293 9.225 73.124 11.14 C65.864 11.14 58.604 11.14 51.124 11.14 C51.124 11.8 51.124 12.46 51.124 13.14 C48.395 13.336 45.666 13.522 42.936 13.703 C42.552 13.731 42.552 13.731 40.606 13.873 C36.583 14.132 33.063 14.206 29.124 13.14 C29.124 12.48 29.124 11.82 29.124 11.14 C27.98 11.152 26.837 11.164 25.659 11.176 C24.168 11.185 22.677 11.194 21.186 11.203 C20.809 11.207 20.809 11.207 18.899 11.228 C16.974 11.237 15.048 11.193 13.124 11.14 C12.959 10.975 12.959 10.975 12.124 10.14 C9.748 10.052 7.402 10.025 5.026 10.043 C4.317 10.044 3.608 10.046 2.878 10.047 C0.606 10.053 -1.667 10.065 -3.939 10.078 C-5.476 10.083 -7.013 10.088 -8.55 10.092 C-12.326 10.103 -16.101 10.12 -19.876 10.14 C-21.196 12.78 -22.516 15.42 -23.876 18.14 C-22.886 18.47 -21.896 18.8 -20.876 19.14 C-21.66 19.615 -22.444 20.089 -23.251 20.578 C-26.432 23.683 -26.764 25.748 -27.419 30.019 C-27.876 32.14 -27.876 32.14 -29.876 35.14 C-29.415 37.043 -29.415 37.043 -28.501 39.078 C-27.107 42.224 -26.876 43.492 -26.876 47.14 C-24.236 47.14 -21.596 47.14 -18.876 47.14 C-18.876 47.8 -18.876 48.46 -18.876 49.14 C-0.396 49.14 18.084 49.14 37.124 49.14 C33.08 51.162 31.527 51.386 27.162 51.367 C26.561 51.367 26.561 51.367 23.522 51.367 C22.231 51.357 20.939 51.346 19.608 51.336 C18.269 51.332 16.929 51.329 15.59 51.327 C12.071 51.32 8.553 51.3 5.035 51.278 C1.442 51.257 -2.151 51.248 -5.744 51.238 C-12.788 51.217 -19.832 51.183 -26.876 51.14 C-26.876 50.48 -26.876 49.82 -26.876 49.14 C-29.186 49.8 -31.496 50.46 -33.876 51.14 C-7.98 51.909 17.902 52.325 43.81 52.444 C48.526 52.466 53.243 52.493 57.959 52.52 C66.819 52.569 75.678 52.614 84.538 52.658 C94.655 52.708 104.772 52.763 114.889 52.818 C135.634 52.93 156.379 53.037 177.124 53.14 C177.124 53.47 177.124 53.8 177.124 54.14 C103.864 54.14 30.604 54.14 -44.876 54.14 C-44.876 47.394 -44.876 47.394 -43.189 44.398 C-42.824 43.732 -42.459 43.066 -42.083 42.38 C-41.685 41.682 -41.287 40.985 -40.876 40.265 C-40.045 38.76 -39.216 37.253 -38.388 35.746 C-37.967 34.983 -37.546 34.221 -37.112 33.435 C-35.553 30.541 -34.116 27.597 -32.686 24.638 C-26.294 11.428 -26.294 11.428 -21.876 7.14 C-20.886 6.81 -19.896 6.48 -18.876 6.14 C-18.876 5.48 -18.876 4.82 -18.876 4.14 C-12.423 0.689 -7.244 -0.009 0 0 Z " fill="#F8753E" transform="translate(890.8763732910156,64.85955810546875)"/>
<path d="M0 0 C3.84 0.006 7.679 0.007 11.519 0.008 C18.754 0.011 25.988 0.019 33.223 0.029 C41.475 0.041 49.727 0.046 57.979 0.051 C74.92 0.061 91.861 0.079 108.803 0.101 C108.803 0.761 108.803 1.421 108.803 2.101 C109.755 2.078 110.708 2.055 111.689 2.031 C112.944 2.013 114.198 1.995 115.49 1.976 C116.111 1.965 116.111 1.965 119.252 1.906 C122.689 2.095 124.694 2.757 127.803 4.101 C129.714 4.39 131.632 4.638 133.553 4.851 C139.906 5.834 143.744 8.32 148.803 12.101 C149.957 12.768 151.124 13.416 152.303 14.039 C156.791 16.542 161.023 19.622 164.803 23.101 C164.803 23.761 164.803 24.421 164.803 25.101 C165.421 25.349 166.04 25.596 166.678 25.851 C169.228 27.351 169.565 28.471 170.803 31.101 C171.407 31.696 172.012 32.29 172.635 32.902 C178.104 38.451 182.626 45.174 182.803 53.101 C182.473 52.441 182.143 51.781 181.803 51.101 C181.143 51.101 180.483 51.101 179.803 51.101 C179.803 50.111 179.803 49.121 179.803 48.101 C179.189 48.028 178.575 47.954 177.943 47.879 C175.803 47.101 175.803 47.101 174.537 45.105 C174.212 44.3 173.887 43.494 173.553 42.664 C173.217 41.861 172.882 41.058 172.537 40.23 C171.803 38.101 171.803 38.101 171.803 36.101 C170.813 35.771 169.823 35.441 168.803 35.101 C166.615 33.226 166.615 33.226 164.803 31.101 C164.803 30.111 164.803 29.121 164.803 28.101 C164.246 27.875 163.689 27.648 163.115 27.414 C160.803 26.101 160.803 26.101 158.303 23.539 C155.765 21.065 155.015 20.877 151.803 20.101 C151.514 19.462 151.225 18.823 150.928 18.164 C149.803 16.101 149.803 16.101 147.365 14.851 C143.25 13.985 139.48 13.995 135.291 14.129 C132.803 14.101 132.803 14.101 129.803 13.101 C129.803 12.441 129.803 11.781 129.803 11.101 C128.957 11.431 128.111 11.761 127.24 12.101 C123.593 13.162 120.58 13.252 116.803 13.101 C116.803 11.781 116.803 10.461 116.803 9.101 C115.073 9.244 113.344 9.39 111.615 9.539 C110.652 9.62 109.689 9.701 108.697 9.785 C106.016 10.078 103.436 10.528 100.803 11.101 C100.803 11.761 100.803 12.421 100.803 13.101 C99.153 13.101 97.503 13.101 95.803 13.101 C95.803 12.441 95.803 11.781 95.803 11.101 C94.483 11.101 93.163 11.101 91.803 11.101 C91.473 11.761 91.143 12.421 90.803 13.101 C89.813 12.771 88.823 12.441 87.803 12.101 C86.813 12.431 85.823 12.761 84.803 13.101 C84.803 12.441 84.803 11.781 84.803 11.101 C83.813 11.431 82.823 11.761 81.803 12.101 C79.737 12.016 77.673 11.863 75.615 11.664 C74.528 11.562 73.442 11.46 72.322 11.355 C71.491 11.272 70.659 11.188 69.803 11.101 C69.803 10.771 69.803 10.441 69.803 10.101 C69.237 10.076 68.672 10.051 68.09 10.025 C65.536 9.91 62.982 9.787 60.428 9.664 C59.538 9.625 58.649 9.585 57.732 9.545 C57.307 9.524 57.307 9.524 55.154 9.418 C54.369 9.381 53.583 9.344 52.774 9.307 C50.803 9.101 50.803 9.101 48.803 8.101 C46.513 8.027 44.222 8.018 41.931 8.039 C41.253 8.043 40.575 8.046 39.877 8.05 C36.972 8.067 34.068 8.095 31.164 8.122 C29.045 8.14 26.926 8.152 24.806 8.164 C23.536 8.175 22.266 8.187 20.957 8.199 C17.803 8.101 17.803 8.101 14.803 7.101 C14.803 6.441 14.803 5.781 14.803 5.101 C3.913 4.606 3.913 4.606 -51.197 2.101 C-51.197 1.771 -51.197 1.441 -51.197 1.101 C-34.132 0.037 -17.09 -0.033 0 0 Z " fill="#F5652C" transform="translate(971.1974165439606,66.89860606193542)"/>
<path d="M0 0 C0.66 0 1.32 0 2 0 C2 0.66 2 1.32 2 2 C2.993 1.838 3.985 1.675 5.008 1.508 C8.972 0.943 12.869 0.867 16.875 0.875 C18.192 0.872 19.51 0.87 20.867 0.867 C24 1 24 1 25 2 C26.706 2.157 28.417 2.251 30.129 2.316 C30.646 2.337 30.646 2.337 33.264 2.443 C34.352 2.483 35.441 2.522 36.562 2.562 C37.655 2.606 38.747 2.649 39.873 2.693 C42.582 2.8 45.291 2.902 48 3 C48 3.99 48 4.98 48 6 C54.6 6.165 54.6 6.165 88 7 C88 7.33 88 7.66 88 8 C115.72 8.33 143.44 8.66 172 9 C172 9.33 172 9.66 172 10 C171.233 10.002 170.467 10.005 169.677 10.007 C151.015 10.066 132.352 10.142 113.69 10.236 C104.665 10.281 95.64 10.32 86.615 10.346 C78.748 10.369 70.881 10.403 63.014 10.449 C58.849 10.473 54.684 10.491 50.519 10.498 C46.597 10.504 42.675 10.524 38.752 10.554 C37.315 10.563 35.878 10.567 34.441 10.565 C20.779 10.553 20.779 10.553 15 14 C10.382 18.982 9.841 22.308 9.766 28.903 C9.753 29.719 9.74 30.536 9.726 31.377 C9.698 33.154 9.671 34.931 9.646 36.709 C9.605 39.526 9.556 42.342 9.504 45.159 C9.356 53.169 9.213 61.18 9.101 69.19 C9.032 74.088 8.945 78.986 8.845 83.883 C8.81 85.747 8.783 87.61 8.763 89.474 C8.734 92.09 8.68 94.705 8.622 97.321 C8.619 98.084 8.616 98.847 8.613 99.633 C8.461 104.903 7.382 109.805 4 114 C1.002 115.072 -1.783 115.122 -4.952 115.114 C-5.933 115.113 -6.914 115.113 -7.924 115.113 C-8.975 115.108 -10.026 115.103 -11.109 115.098 C-12.191 115.096 -13.273 115.095 -14.388 115.093 C-17.842 115.088 -21.296 115.075 -24.75 115.062 C-27.092 115.057 -29.435 115.053 -31.777 115.049 C-37.518 115.038 -43.259 115.021 -49 115 C-49 114.67 -49 114.34 -49 114 C-32.5 113.67 -16 113.34 1 113 C1.165 112.505 1.165 112.505 2 110 C2.99 110 3.98 110 5 110 C5.9 99.637 6.149 89.382 6.133 78.988 C6.133 77.401 6.134 75.814 6.136 74.227 C6.137 70.934 6.135 67.64 6.13 64.347 C6.125 60.126 6.128 55.905 6.134 51.684 C6.138 48.421 6.136 45.159 6.134 41.897 C6.133 40.339 6.134 38.781 6.136 37.223 C6.139 35.058 6.135 32.893 6.129 30.728 C6.129 29.498 6.128 28.267 6.127 27 C6 24 6 24 5 21 C4.01 21 3.02 21 2 21 C0.839 16.744 1.238 13.316 2 9 C1.34 9 0.68 9 0 9 C0 6 0 3 0 0 Z " fill="#F78349" transform="translate(896,255)"/>
<path d="M0 0 C1.337 0.319 2.669 0.656 4 1 C6.779 1.258 9.558 1.441 12.344 1.621 C14.976 1.997 16.719 2.671 19 4 C19 3.34 19 2.68 19 2 C39.79 1.67 60.58 1.34 82 1 C82 1.99 82 2.98 82 4 C61.54 4 41.08 4 20 4 C20 4.66 20 5.32 20 6 C27.59 6 35.18 6 43 6 C43 6.66 43 7.32 43 8 C40.5 8.17 38 8.336 35.5 8.5 C34.804 8.548 34.108 8.595 33.391 8.645 C29.791 8.878 26.233 9.014 22.625 8.965 C19 9 19 9 16.5 10.062 C12.776 11.459 9.893 10.66 6 10 C6.165 10.495 6.165 10.495 7 13 C5.125 12.688 5.125 12.688 3 12 C2.34 11.01 1.68 10.02 1 9 C0.505 9.66 0.01 10.32 -0.5 11 C-4.103 13.883 -6.47 13.302 -11 13 C-11.99 14.98 -12.98 16.96 -14 19 C-13.34 19 -12.68 19 -12 19 C-12.114 20.48 -12.241 21.959 -12.375 23.438 C-12.445 24.261 -12.514 25.085 -12.586 25.934 C-12.723 26.616 -12.859 27.297 -13 28 C-13.66 28.33 -14.32 28.66 -15 29 C-15 27.68 -15 26.36 -15 25 C-16.32 25 -17.64 25 -19 25 C-19 23.02 -19 21.04 -19 19 C-20.938 19.562 -20.938 19.562 -23 21 C-23.374 23.327 -23.708 25.661 -24 28 C-24.99 28.66 -25.98 29.32 -27 30 C-27.512 31.945 -27.512 31.945 -27.688 34.125 C-27.791 35.404 -27.894 36.683 -28 38 C-28.33 38 -28.66 38 -29 38 C-29.33 77.27 -29.66 116.54 -30 157 C-30.33 157 -30.66 157 -31 157 C-31.903 133.105 -32.217 109.228 -32.24 85.317 C-32.246 80.461 -32.27 75.606 -32.298 70.751 C-32.317 66.951 -32.322 63.151 -32.324 59.351 C-32.327 57.559 -32.334 55.767 -32.348 53.975 C-32.468 36.508 -29.074 24.232 -17.754 10.594 C-12.887 6.01 -7.062 3.648 -1 1 C-0.67 0.67 -0.34 0.34 0 0 Z " fill="#F37F4B" transform="translate(877,212)"/>
<path d="M0 0 C0.66 0 1.32 0 2 0 C2 0.66 2 1.32 2 2 C1.67 2.165 1.67 2.165 0 3 C-0.852 5.066 -0.852 5.066 -1.625 7.562 C-1.885 8.389 -2.146 9.215 -2.414 10.066 C-2.607 10.704 -2.801 11.343 -3 12 C-2.01 12.33 -1.02 12.66 0 13 C-0.784 13.474 -1.567 13.949 -2.375 14.438 C-5.556 17.543 -5.887 19.607 -6.543 23.879 C-7 26 -7 26 -9 29 C-8.539 30.902 -8.539 30.902 -7.625 32.938 C-6.231 36.083 -6 37.352 -6 41 C-3.36 41 -0.72 41 2 41 C2 41.66 2 42.32 2 43 C20.48 43 38.96 43 58 43 C53.956 45.022 52.403 45.245 48.038 45.227 C47.438 45.227 47.438 45.227 44.399 45.227 C43.107 45.216 41.815 45.206 40.484 45.195 C39.145 45.192 37.805 45.189 36.466 45.187 C32.948 45.179 29.43 45.159 25.912 45.137 C22.319 45.117 18.726 45.108 15.133 45.098 C8.088 45.076 1.044 45.042 -6 45 C-6 44.34 -6 43.68 -6 43 C-8.31 43.66 -10.62 44.32 -13 45 C12.897 45.769 38.779 46.185 64.686 46.303 C69.403 46.326 74.119 46.353 78.835 46.379 C87.695 46.429 96.555 46.474 105.415 46.517 C115.531 46.567 125.648 46.622 135.765 46.677 C156.51 46.79 177.255 46.897 198 47 C198 47.33 198 47.66 198 48 C124.74 48 51.48 48 -24 48 C-24 41.253 -24 41.253 -22.312 38.258 C-21.947 37.592 -21.582 36.926 -21.206 36.24 C-20.808 35.542 -20.41 34.844 -20 34.125 C-19.169 32.62 -18.339 31.113 -17.512 29.605 C-17.091 28.843 -16.67 28.08 -16.236 27.294 C-14.316 23.73 -12.575 20.082 -10.812 16.438 C-7.88 10.446 -4.765 4.765 0 0 Z " fill="#F07E44" transform="translate(870,71)"/>
<path d="M0 0 C0.99 0 1.98 0 3 0 C3.66 0.99 4.32 1.98 5 3 C5.66 2.34 6.32 1.68 7 1 C10.125 0.875 10.125 0.875 13 1 C13 1.66 13 2.32 13 3 C15.271 3.027 17.542 3.046 19.812 3.062 C20.445 3.068 20.445 3.068 23.645 3.098 C27 3 27 3 30 2 C30.33 1.34 30.66 0.68 31 0 C31.33 0.165 31.33 0.165 33 1 C33 1.66 33 2.32 33 3 C35.625 3.054 38.249 3.094 40.875 3.125 C41.248 3.133 41.248 3.133 43.137 3.176 C45.092 3.193 47.047 3.103 49 3 C49.66 2.34 50.32 1.68 51 1 C51.165 1.165 51.165 1.165 52 2 C53.517 2.099 55.038 2.131 56.559 2.133 C57.031 2.133 57.031 2.133 59.42 2.137 C60.416 2.133 61.412 2.129 62.438 2.125 C62.918 2.127 62.918 2.127 65.35 2.137 C70.922 2.129 76.358 1.853 81.889 1.166 C84.695 0.945 87.248 1.476 90 2 C91.342 1.702 92.679 1.378 94 1 C94.33 1.165 94.33 1.165 96 2 C98.333 2.04 100.667 2.043 103 2 C103 1.34 103 0.68 103 0 C105.333 -0.042 107.667 -0.041 110 0 C110.33 0.33 110.66 0.66 111 1 C112.908 0.732 114.816 0.464 116.723 0.191 C120.263 -0.106 123.5 0.437 127 1 C128.125 5.75 128.125 5.75 127 8 C127.33 8.33 127.33 8.33 129 10 C128.01 10.99 127.02 11.98 126 13 C125.732 12.691 125.732 12.691 124.375 11.125 C121.689 8.722 119.446 7.94 116 7 C116.33 7.66 116.66 8.32 117 9 C113.7 9 110.4 9 107 9 C107 8.34 107 7.68 107 7 C105.72 7.002 104.44 7.004 103.122 7.007 C90.903 7.027 78.684 7.042 66.465 7.052 C60.188 7.057 53.91 7.064 47.632 7.075 C20.405 7.124 -6.793 7.155 -34 6 C-34 5.67 -34 5.34 -34 5 C-29.05 4.67 -24.1 4.34 -19 4 C-19 3.67 -19 3.34 -19 3 C-13.872 2.254 -9.062 1.935 -3.883 2.16 C-2 2 -2 2 0 0 Z " fill="#F26B2F" transform="translate(961,111)"/>
<path d="M0 0 C0.33 0 0.66 0 1 0 C1 2.97 1 5.94 1 9 C0.34 9 -0.32 9 -1 9 C-1.027 10.75 -1.046 12.5 -1.062 14.25 C-1.068 14.737 -1.068 14.737 -1.098 17.203 C-0.982 20.505 -0.33 23.111 0.812 26.188 C1.105 30.58 -0.805 34.246 -3 38 C-3.33 38.165 -3.33 38.165 -5 39 C-5.66 38.34 -6.32 37.68 -7 37 C-7 35.68 -7 34.36 -7 33 C-7.619 33.66 -8.237 34.32 -8.875 35 C-11 37 -11 37 -13 37 C-13 37.66 -13 38.32 -13 39 C-13.99 39 -14.98 39 -16 39 C-16.33 39.99 -16.66 40.98 -17 42 C-17.66 41.67 -18.32 41.34 -19 41 C-19.33 41.66 -19.66 42.32 -20 43 C-23.062 43.625 -23.062 43.625 -26 44 C-25.67 44.66 -25.34 45.32 -25 46 C-26.134 46.309 -27.269 46.619 -28.438 46.938 C-32 48 -32 48 -33 49 C-35.325 49.424 -37.661 49.79 -40 50.125 C-41.279 50.313 -42.557 50.501 -43.875 50.695 C-44.906 50.796 -45.938 50.896 -47 51 C-47.33 50.67 -47.66 50.34 -48 50 C-50.253 49.903 -52.509 49.878 -54.764 49.88 C-55.479 49.879 -56.195 49.878 -56.932 49.877 C-59.347 49.875 -61.763 49.881 -64.178 49.886 C-65.902 49.887 -67.627 49.887 -69.351 49.886 C-74.047 49.886 -78.743 49.892 -83.439 49.899 C-88.341 49.905 -93.243 49.905 -98.145 49.907 C-107.435 49.91 -116.724 49.918 -126.014 49.928 C-136.587 49.939 -147.16 49.945 -157.733 49.95 C-179.489 49.96 -201.244 49.978 -223 50 C-213.883 44.561 -198.814 46.844 -188.375 46.826 C-186.759 46.82 -185.143 46.813 -183.526 46.806 C-180.076 46.792 -176.626 46.78 -173.176 46.77 C-167.717 46.755 -162.257 46.731 -156.797 46.705 C-141.283 46.634 -125.769 46.574 -110.255 46.523 C-101.663 46.495 -93.071 46.459 -84.48 46.417 C-79.056 46.39 -73.632 46.372 -68.208 46.361 C-64.836 46.351 -61.464 46.334 -58.092 46.314 C-56.532 46.307 -54.973 46.303 -53.413 46.302 C-51.279 46.301 -49.145 46.288 -47.012 46.272 C-45.819 46.268 -44.627 46.263 -43.399 46.259 C-38.331 45.873 -33.666 44.501 -29.105 42.273 C-28.46 41.964 -27.815 41.655 -27.15 41.336 C-26.503 41.019 -25.855 40.702 -25.188 40.375 C-18.257 37 -18.257 37 -16 37 C-15.729 36.425 -15.459 35.85 -15.18 35.258 C-13.985 32.972 -12.62 30.974 -11.125 28.875 C-5.236 20.084 -2.739 10.11 0 0 Z " fill="#E57C57" transform="translate(1104,162)"/>
<path d="M0 0 C0.33 0 0.66 0 1 0 C1 1.98 1 3.96 1 6 C1.99 6 2.98 6 4 6 C6.484 22.689 5.615 39.575 2 56 C1.655 57.998 1.317 59.997 1 62 C0.34 62 -0.32 62 -1 62 C-1.206 62.969 -1.412 63.939 -1.625 64.938 C-3.076 69.953 -6.01 73.782 -9 78 C-10.094 79.621 -11.187 81.241 -12.281 82.862 C-20.905 95.54 -30.499 104.295 -43.438 112.5 C-44.136 112.946 -44.835 113.392 -45.554 113.851 C-50.633 117 -50.633 117 -54 117 C-54.33 116.01 -54.66 115.02 -55 114 C-53.845 113.835 -53.845 113.835 -48 113 C-48.33 112.01 -48.66 111.02 -49 110 C-48.01 110 -47.02 110 -46 110 C-46 108.02 -46 106.04 -46 104 C-45.443 103.866 -45.443 103.866 -42.625 103.188 C-39 102 -39 102 -37 99 C-36.34 99 -35.68 99 -35 99 C-34.918 98.423 -34.835 97.845 -34.75 97.25 C-33.765 94.295 -32.419 92.935 -30 91 C-28.68 91 -27.36 91 -26 91 C-25.67 89.35 -25.34 87.7 -25 86 C-24.505 85.835 -24.505 85.835 -22 85 C-19.679 81.647 -19.459 77.976 -19 74 C-18.969 74.309 -18.969 74.309 -18.812 75.875 C-18.544 76.576 -18.276 77.278 -18 78 C-15.449 79.133 -15.449 79.133 -13 80 C-12.59 79.313 -12.18 78.626 -11.758 77.918 C-11.219 77.017 -10.68 76.116 -10.125 75.188 C-9.591 74.294 -9.058 73.401 -8.508 72.48 C-7.381 70.627 -6.203 68.805 -5 67 C-4.071 64.398 -4.017 62.552 -4.125 59.75 C-4 56 -4 56 -2.524 52.471 C-0.498 47.269 -0.523 42.245 -0.488 36.719 C-0.47 35.665 -0.452 34.611 -0.434 33.525 C-0.38 30.183 -0.346 26.842 -0.312 23.5 C-0.279 21.224 -0.245 18.948 -0.209 16.672 C-0.124 11.115 -0.056 5.558 0 0 Z " fill="#E97541" transform="translate(1158,138)"/>
<path d="M0 0 C2.304 0.005 4.608 0.01 6.912 0.014 C12.462 0.025 18.012 0.041 23.562 0.062 C23.562 0.722 23.562 1.382 23.562 2.062 C24.515 2.039 25.468 2.016 26.449 1.992 C27.703 1.974 28.958 1.956 30.25 1.938 C30.871 1.926 30.871 1.926 34.012 1.867 C37.449 2.056 39.454 2.718 42.562 4.062 C44.474 4.351 46.391 4.599 48.312 4.812 C54.666 5.795 58.504 8.281 63.562 12.062 C64.717 12.729 65.884 13.377 67.062 14 C71.551 16.503 75.783 19.583 79.562 23.062 C79.562 23.722 79.562 24.382 79.562 25.062 C80.181 25.31 80.8 25.558 81.438 25.812 C83.988 27.313 84.325 28.432 85.562 31.062 C86.167 31.657 86.772 32.251 87.395 32.863 C92.864 38.412 97.386 45.135 97.562 53.062 C97.233 52.403 96.902 51.743 96.562 51.062 C95.902 51.062 95.243 51.062 94.562 51.062 C94.562 50.072 94.562 49.083 94.562 48.062 C93.949 47.989 93.335 47.916 92.703 47.84 C90.562 47.062 90.562 47.062 89.297 45.066 C88.972 44.261 88.647 43.455 88.312 42.625 C87.977 41.822 87.642 41.019 87.297 40.191 C86.562 38.062 86.562 38.062 86.562 36.062 C85.572 35.733 84.582 35.403 83.562 35.062 C81.375 33.188 81.375 33.188 79.562 31.062 C79.562 30.073 79.562 29.082 79.562 28.062 C79.006 27.836 78.449 27.609 77.875 27.375 C75.562 26.062 75.562 26.062 73.062 23.5 C70.525 21.026 69.775 20.838 66.562 20.062 C66.274 19.423 65.985 18.784 65.688 18.125 C64.562 16.062 64.562 16.062 62.125 14.812 C58.01 13.946 54.24 13.957 50.051 14.09 C47.562 14.062 47.562 14.062 44.562 13.062 C43.875 11 43.875 11 43.562 9.062 C50.991 10.062 50.991 10.062 54.562 11.062 C54.562 10.403 54.562 9.743 54.562 9.062 C51.127 7.345 47.204 7.658 43.41 7.441 C40.562 7.062 40.562 7.062 37.562 5.062 C27.286 3.583 16.599 3.789 6.227 3.527 C4.61 3.484 2.993 3.441 1.377 3.397 C-2.829 3.284 -7.034 3.175 -11.239 3.067 C-15.55 2.955 -19.861 2.84 -24.172 2.725 C-32.594 2.5 -41.016 2.28 -49.438 2.062 C-49.438 1.733 -49.438 1.403 -49.438 1.062 C-32.948 0.177 -16.511 -0.064 0 0 Z " fill="#EA571D" transform="translate(1056.4375,66.9375)"/>
<path d="M0 0 C0.394 -0.001 0.394 -0.001 2.385 -0.009 C5.02 -0.018 7.655 -0.019 10.29 -0.021 C12.181 -0.025 14.072 -0.03 15.963 -0.036 C21.103 -0.049 26.242 -0.055 31.381 -0.06 C34.599 -0.063 37.816 -0.067 41.034 -0.071 C51.119 -0.085 61.205 -0.095 71.29 -0.098 C82.896 -0.103 94.501 -0.12 106.106 -0.149 C115.097 -0.171 124.087 -0.181 133.078 -0.182 C138.437 -0.184 143.796 -0.189 149.154 -0.207 C154.209 -0.224 159.263 -0.226 164.318 -0.217 C166.158 -0.216 167.998 -0.221 169.838 -0.231 C179.151 -0.278 188.217 0.066 197.435 1.475 C197.82 1.533 197.82 1.533 199.77 1.828 C204.607 2.649 208.686 4.046 213.124 6.14 C213.124 6.47 213.124 6.8 213.124 7.14 C211.644 7 210.165 6.853 208.686 6.703 C207.862 6.622 207.039 6.541 206.19 6.457 C204.124 6.14 204.124 6.14 203.124 5.14 C201.172 5.14 199.22 5.144 197.268 5.172 C194.488 5.131 191.845 4.685 189.124 4.14 C189.124 3.48 189.124 2.82 189.124 2.14 C163.264 2.248 137.404 2.36 111.544 2.48 C99.537 2.535 87.53 2.589 75.523 2.638 C65.059 2.681 54.595 2.727 44.132 2.777 C38.59 2.804 33.048 2.829 27.506 2.85 C22.292 2.869 17.077 2.893 11.863 2.921 C9.948 2.93 8.033 2.938 6.117 2.944 C3.505 2.952 0.892 2.966 -1.72 2.982 C-2.48 2.983 -3.24 2.984 -4.023 2.985 C-7.763 3.014 -11.239 3.245 -14.876 4.14 C-14.876 4.8 -14.876 5.46 -14.876 6.14 C-16.196 6.14 -17.516 6.14 -18.876 6.14 C-18.876 5.48 -18.876 4.82 -18.876 4.14 C-12.423 0.689 -7.244 -0.009 0 0 Z " fill="#E1673D" transform="translate(890.8763732910156,64.85955810546875)"/>
<path d="M0 0 C2.31 0.165 2.31 0.165 14 1 C14 1.66 14 2.32 14 3 C34.46 3 54.92 3 76 3 C76 3.33 76 3.66 76 4 C103.72 4.33 131.44 4.66 160 5 C160 5.33 160 5.66 160 6 C159.233 6.002 158.467 6.005 157.677 6.007 C139.015 6.066 120.352 6.142 101.69 6.236 C92.665 6.281 83.64 6.32 74.615 6.346 C66.748 6.369 58.881 6.403 51.014 6.449 C46.849 6.473 42.684 6.491 38.519 6.498 C34.597 6.504 30.675 6.524 26.752 6.554 C25.315 6.563 23.878 6.567 22.441 6.565 C13.123 6.557 6.358 6.819 -1 13 C-0.67 10.69 -0.34 8.38 0 6 C1.32 6.33 2.64 6.66 4 7 C4 5.68 4 4.36 4 3 C2.02 3.33 0.04 3.66 -2 4 C-1.34 2.68 -0.68 1.36 0 0 Z " fill="#F0966F" transform="translate(908,259)"/>
<path d="M0 0 C0.33 1.32 0.66 2.64 1 4 C0.34 4 -0.32 4 -1 4 C-0.794 4.557 -0.587 5.114 -0.375 5.688 C0.107 8.658 -0.819 10.283 -2 13 C-1.042 12.997 -0.084 12.995 0.903 12.992 C42.267 12.892 83.629 13.192 124.991 13.445 C135.05 13.507 145.109 13.567 155.168 13.627 C175.778 13.749 196.389 13.874 217 14 C217 14.33 217 14.66 217 15 C143.74 15 70.48 15 -5 15 C-5 8.25 -5 8.25 -2.5 4.125 C-2.036 3.344 -1.572 2.563 -1.094 1.758 C-0.913 1.468 -0.913 1.468 0 0 Z " fill="#E28569" transform="translate(851,104)"/>
<path d="M0 0 C0 3.46 -0.321 6.605 -1 10 C-1.99 10.66 -2.98 11.32 -4 12 C-4.512 13.945 -4.512 13.945 -4.688 16.125 C-4.739 16.764 -4.739 16.764 -5 20 C-5.33 20 -5.66 20 -6 20 C-6.33 59.27 -6.66 98.54 -7 139 C-7.33 139 -7.66 139 -8 139 C-8.903 115.105 -9.217 91.228 -9.24 67.317 C-9.246 62.461 -9.27 57.606 -9.298 52.751 C-9.317 48.951 -9.322 45.151 -9.324 41.351 C-9.327 39.559 -9.334 37.767 -9.348 35.975 C-9.425 24.8 -9.241 14.851 -3.375 4.938 C-2.95 4.204 -2.524 3.471 -2.086 2.715 C-1 1 -1 1 0 0 Z " fill="#E39C8E" transform="translate(854,230)"/>
<path d="M0 0 C0.763 0.206 1.526 0.412 2.312 0.625 C2.312 1.285 2.312 1.945 2.312 2.625 C2.973 2.625 3.632 2.625 4.312 2.625 C4.312 1.965 4.312 1.305 4.312 0.625 C5.303 0.625 6.293 0.625 7.312 0.625 C8.438 7.25 8.438 7.25 7.312 10.625 C7.642 11.12 7.642 11.12 9.312 13.625 C10.843 20.891 11.483 28.15 11.324 35.562 C11.31 38.046 11.549 40.257 12.312 42.625 C12.973 42.955 13.632 43.285 14.312 43.625 C13.549 44.285 12.786 44.945 12 45.625 C8.745 48.834 7.698 52.323 6.312 56.625 C5.983 56.625 5.652 56.625 5.312 56.625 C5.285 55.021 5.266 53.417 5.25 51.812 C5.238 50.919 5.227 50.026 5.215 49.105 C5.312 46.625 5.312 46.625 6.312 43.625 C6.973 43.625 7.632 43.625 8.312 43.625 C8.284 30.008 6.984 21.132 -0.688 9.625 C-0.997 8.429 -1.306 7.232 -1.625 6 C-1.976 4.886 -2.326 3.773 -2.688 2.625 C-3.678 2.295 -4.668 1.965 -5.688 1.625 C-2.688 -0.375 -2.688 -0.375 0 0 Z " fill="#EE612B" transform="translate(1096.6875,127.375)"/>
<path d="M0 0 C0.66 0 1.32 0 2 0 C1.84 0.492 1.68 0.985 1.515 1.492 C0.79 5.026 0.808 8.537 0.766 12.13 C0.753 12.947 0.74 13.763 0.726 14.605 C0.698 16.377 0.671 18.148 0.646 19.92 C0.605 22.729 0.556 25.537 0.504 28.346 C0.357 36.33 0.213 44.315 0.101 52.3 C0.032 57.188 -0.055 62.074 -0.155 66.961 C-0.189 68.819 -0.217 70.677 -0.237 72.535 C-0.266 75.141 -0.32 77.746 -0.378 80.353 C-0.381 81.112 -0.384 81.872 -0.387 82.655 C-0.539 87.917 -1.625 92.812 -5 97 C-7.998 98.073 -10.783 98.122 -13.952 98.114 C-14.933 98.113 -15.914 98.113 -16.924 98.113 C-17.975 98.108 -19.026 98.103 -20.109 98.098 C-21.191 98.096 -22.273 98.095 -23.388 98.093 C-26.842 98.088 -30.296 98.075 -33.75 98.062 C-36.092 98.057 -38.435 98.053 -40.777 98.049 C-46.518 98.038 -52.259 98.021 -58 98 C-58 97.67 -58 97.34 -58 97 C-41.5 96.67 -25 96.34 -8 96 C-7.835 95.505 -7.835 95.505 -7 93 C-6.01 93 -5.02 93 -4 93 C-3.062 82.381 -2.867 71.877 -2.902 61.227 C-2.904 59.565 -2.906 57.904 -2.907 56.242 C-2.91 51.919 -2.92 47.595 -2.931 43.272 C-2.942 38.84 -2.946 34.408 -2.951 29.977 C-2.962 21.318 -2.979 12.659 -3 4 C-2.01 3.67 -1.02 3.34 0 3 C0 2.01 0 1.02 0 0 Z " fill="#E6977B" transform="translate(905,272)"/>
<path d="M0 0 C0.801 -0.001 1.601 -0.002 2.426 -0.003 C5.105 -0.004 7.784 0.001 10.464 0.007 C12.386 0.007 14.308 0.007 16.229 0.006 C21.446 0.006 26.662 0.012 31.879 0.019 C37.331 0.025 42.783 0.026 48.235 0.027 C58.558 0.03 68.882 0.038 79.205 0.048 C90.959 0.059 102.712 0.065 114.465 0.07 C138.642 0.08 162.819 0.098 186.996 0.12 C186.996 0.45 186.996 0.78 186.996 1.12 C186.509 1.122 186.509 1.122 184.048 1.133 C160.379 1.236 136.709 1.345 113.04 1.46 C101.593 1.515 90.147 1.568 78.701 1.618 C68.724 1.66 58.747 1.707 48.771 1.757 C43.488 1.784 38.206 1.809 32.923 1.829 C27.95 1.849 22.977 1.873 18.004 1.901 C16.18 1.91 14.356 1.918 12.532 1.924 C10.038 1.932 7.544 1.946 5.051 1.962 C4.332 1.963 3.613 1.964 2.872 1.965 C-3.222 2.014 -9.054 2.858 -15.004 4.12 C-15.004 4.78 -15.004 5.44 -15.004 6.12 C-16.324 6.12 -17.644 6.12 -19.004 6.12 C-19.004 5.46 -19.004 4.8 -19.004 4.12 C-12.502 0.642 -7.299 -0.029 0 0 Z " fill="#D47D64" transform="translate(891.0042266845703,64.87974548339844)"/>
<path d="M0 0 C0.33 0.66 0.66 1.32 1 2 C0.67 2.66 0.34 3.32 0 4 C0.66 4.33 1.32 4.66 2 5 C2.625 8.062 2.625 8.062 3 11 C2.175 11.454 1.35 11.907 0.5 12.375 C-0.325 12.911 -1.15 13.447 -2 14 C-2 14.66 -2 15.32 -2 16 C-2.66 16 -3.32 16 -4 16 C-4.33 16.66 -4.66 17.32 -5 18 C-5.293 11.945 -5.293 11.945 -5 10 C-4.01 9.34 -3.02 8.68 -2 8 C-1.593 5.678 -1.256 3.343 -1 1 C-0.67 0.67 -0.34 0.34 0 0 Z M-7 17 C-4.39 19.61 -4.362 21.375 -4 25 C-4.324 26.336 -4.657 27.669 -5 29 C-4.814 29.825 -4.629 30.65 -4.438 31.5 C-3.924 34.436 -4.442 35.526 -6 38 C-5.34 38.33 -4.68 38.66 -4 39 C-4.33 39.99 -4.66 40.98 -5 42 C-5.092 43.352 -5.131 44.708 -5.133 46.062 C-5.135 46.854 -5.137 47.646 -5.138 48.462 C-5.134 49.3 -5.13 50.137 -5.125 51 C-5.124 51.854 -5.123 52.708 -5.121 53.588 C-5.088 59.029 -4.833 64.373 -4.121 69.773 C-4 72 -4 72 -4.477 74.152 C-5.433 79.354 -4.996 84.688 -4.873 89.959 C-4.868 90.396 -4.868 90.396 -4.84 92.605 C-4.823 93.401 -4.806 94.197 -4.789 95.016 C-5 97 -5 97 -7 99 C-7 71.94 -7 44.88 -7 17 Z " fill="#EE7A51" transform="translate(854,232)"/>
<path d="M0 0 C-2.602 1.734 -4.109 2.453 -7.02 3.254 C-7.795 3.469 -8.57 3.683 -9.369 3.904 C-9.772 4.013 -9.772 4.013 -11.812 4.562 C-12.607 4.784 -13.402 5.005 -14.221 5.232 C-22.569 7.518 -30.234 8.141 -38.88 8.114 C-40.071 8.114 -41.262 8.114 -42.489 8.114 C-45.741 8.113 -48.992 8.108 -52.244 8.101 C-55.647 8.095 -59.05 8.095 -62.454 8.093 C-68.892 8.09 -75.33 8.082 -81.769 8.072 C-89.101 8.061 -96.434 8.055 -103.766 8.05 C-118.844 8.04 -133.922 8.022 -149 8 C-149 7.67 -149 7.34 -149 7 C-148.701 6.998 -148.701 6.998 -147.191 6.99 C-132.616 6.909 -118.041 6.816 -103.466 6.712 C-96.417 6.662 -89.369 6.616 -82.32 6.578 C-75.512 6.541 -68.704 6.495 -61.896 6.442 C-59.305 6.423 -56.713 6.408 -54.122 6.397 C-50.479 6.38 -46.837 6.351 -43.194 6.319 C-42.134 6.317 -41.074 6.315 -39.981 6.312 C-33.728 6.243 -27.827 5.613 -21.685 4.426 C-19.072 4.011 -16.64 3.925 -14 4 C-14 3.34 -14 2.68 -14 2 C-11.982 1.512 -9.964 1.023 -7.945 0.535 C-2.87 -0.861 -2.87 -0.861 0 0 Z " fill="#E57952" transform="translate(1101,256)"/>
<path d="M0 0 C4.823 2.604 8.972 5.266 13 9 C13 9.66 13 10.32 13 11 C13.619 11.248 14.237 11.495 14.875 11.75 C17.425 13.25 17.762 14.37 19 17 C19.605 17.594 20.209 18.189 20.832 18.801 C26.302 24.349 30.824 31.073 31 39 C30.67 38.34 30.34 37.68 30 37 C29.34 37 28.68 37 28 37 C28 36.01 28 35.02 28 34 C27.386 33.927 26.773 33.853 26.141 33.777 C24 33 24 33 22.734 31.004 C22.41 30.198 22.085 29.393 21.75 28.562 C21.415 27.759 21.08 26.956 20.734 26.129 C20 24 20 24 20 22 C19.01 21.67 18.02 21.34 17 21 C14.812 19.125 14.812 19.125 13 17 C13 16.01 13 15.02 13 14 C12.443 13.773 11.886 13.546 11.312 13.312 C7.316 11.044 4.46 8.381 3 4 C2.34 4 1.68 4 1 4 C0.67 2.68 0.34 1.36 0 0 Z " fill="#B6471D" transform="translate(1123,81)"/>
<path d="M0 0 C1.65 0 3.3 0 5 0 C5.125 2.375 5.125 2.375 5 5 C4.34 5.66 3.68 6.32 3 7 C3.165 7.495 3.165 7.495 4 10 C3.67 10.99 3.34 11.98 3 13 C2.34 13 1.68 13 1 13 C0.67 43.03 0.34 73.06 0 104 C-0.33 104 -0.66 104 -1 104 C-1 71.99 -1 39.98 -1 7 C-10.9 7 -20.8 7 -31 7 C-31 6.67 -31 6.34 -31 6 C-21.1 6 -11.2 6 -1 6 C-1 5.34 -1 4.68 -1 4 C-0.34 4 0.32 4 1 4 C0.67 2.68 0.34 1.36 0 0 Z " fill="#565F68" transform="translate(587,112)"/>
<path d="M0 0 C0.66 0 1.32 0 2 0 C2 0.66 2 1.32 2 2 C1.67 2.165 1.67 2.165 0 3 C-0.852 5.066 -0.852 5.066 -1.625 7.562 C-1.885 8.389 -2.146 9.215 -2.414 10.066 C-2.607 10.704 -2.801 11.343 -3 12 C-2.01 12.33 -1.02 12.66 0 13 C-0.784 13.474 -1.567 13.949 -2.375 14.438 C-5.562 17.549 -5.852 19.591 -6.445 23.879 C-7.118 26.45 -7.85 27.45 -10 29 C-11.32 29 -12.64 29 -14 29 C-14.66 29.99 -15.32 30.98 -16 32 C-16.66 32 -17.32 32 -18 32 C-13.572 20.581 -8.784 8.784 0 0 Z " fill="#F37D46" transform="translate(870,71)"/>
<path d="M0 0 C0.66 0.33 1.32 0.66 2 1 C1.518 1.375 1.036 1.75 0.539 2.137 C-3.179 5.149 -5.631 7.272 -7 12 C-7.652 13.341 -8.314 14.677 -9 16 C-8.34 16 -7.68 16 -7 16 C-7.114 17.48 -7.241 18.959 -7.375 20.438 C-7.445 21.261 -7.514 22.085 -7.586 22.934 C-7.723 23.616 -7.859 24.297 -8 25 C-8.66 25.33 -9.32 25.66 -10 26 C-10 24.68 -10 23.36 -10 22 C-11.32 22 -12.64 22 -14 22 C-14 20.02 -14 18.04 -14 16 C-14.99 16.33 -15.98 16.66 -17 17 C-16.73 12.539 -14.851 9.93 -11.957 6.719 C-8.473 3.658 -4.377 1.511 0 0 Z " fill="#F07E4D" transform="translate(872,215)"/>
<path d="M0 0 C2.27 3.405 3.405 6.827 4.625 10.688 C4.74 11.029 4.74 11.029 5.32 12.756 C6.879 17.669 7.22 21.849 7 27 C5.35 27 3.7 27 2 27 C1.67 25.02 1.34 23.04 1 21 C0.01 21.33 -0.98 21.66 -2 22 C-2 8.625 -2 8.625 -1 4.312 C-0.814 3.504 -0.629 2.696 -0.438 1.863 C-0.365 1.556 -0.365 1.556 0 0 Z " fill="#F26C34" transform="translate(1154,117)"/>
<path d="M0 0 C4.977 3.62 7.918 7.147 10 13 C10 13.99 10 14.98 10 16 C11.32 16.33 12.64 16.66 14 17 C14 17.99 14 18.98 14 20 C14.66 20 15.32 20 16 20 C16 21.65 16 23.3 16 25 C11.587 21.848 8.992 18.445 6 14 C5.701 14.093 5.701 14.093 4.188 14.562 C2 15 2 15 -1 14 C-1.222 12.231 -1.427 10.46 -1.625 8.688 C-1.741 7.701 -1.857 6.715 -1.977 5.699 C-2 3 -2 3 0 0 Z " fill="#F56631" transform="translate(1137,98)"/>
<path d="M0 0 C1.875 0.312 1.875 0.312 4 1 C4.66 1.99 5.32 2.98 6 4 C8.125 5.188 8.125 5.188 10 6 C10 6.66 10 7.32 10 8 C10.578 8.248 11.155 8.495 11.75 8.75 C14 10 14 10 18 14 C12.72 14 7.44 14 2 14 C2 11.03 2 8.06 2 5 C1.34 4.67 0.68 4.34 0 4 C0 2.68 0 1.36 0 0 Z " fill="#F5662E" transform="translate(1118,82)"/>
<path d="M0 0 C8.902 -0.07 17.805 -0.123 26.707 -0.155 C30.842 -0.171 34.977 -0.192 39.112 -0.226 C43.113 -0.259 47.113 -0.277 51.114 -0.285 C52.63 -0.29 54.146 -0.301 55.662 -0.317 C66.966 -0.434 77.455 0.565 88 5 C88 5.33 88 5.66 88 6 C86.52 5.86 85.041 5.712 83.562 5.562 C83.151 5.522 83.151 5.522 81.066 5.316 C79 5 79 5 78 4 C76.048 4 74.096 4.003 72.145 4.031 C69.365 3.991 66.722 3.544 64 3 C64 2.34 64 1.68 64 1 C42.88 1 21.76 1 0 1 C0 0.67 0 0.34 0 0 Z " fill="#D1562C" transform="translate(1016,66)"/>
<path d="M0 0 C3.573 0.613 6.796 1.275 10 3 C11.37 4.975 12.707 6.974 14 9 C14.99 9.33 15.98 9.66 17 10 C17.33 10.66 17.66 11.32 18 12 C18.99 12.66 19.98 13.32 21 14 C21.188 16.625 21.188 16.625 21 19 C20.67 18.34 20.34 17.68 20 17 C19.422 16.711 18.845 16.423 18.25 16.125 C16 15 16 15 13.816 13.164 C10.602 10.694 7.327 8.997 3.688 7.25 C3.042 6.934 2.397 6.618 1.732 6.293 C0.158 5.523 -1.421 4.761 -3 4 C-3 3.67 -3 3.34 -3 3 C-1.35 2.67 0.3 2.34 2 2 C1.34 1.34 0.68 0.68 0 0 Z " fill="#E8662B" transform="translate(1075,117)"/>
<path d="M0 0 C6.425 1.428 12.753 3.979 18 8 C18.695 10.637 18.695 10.637 19 13 C19.66 13.33 20.32 13.66 21 14 C20.01 14.33 19.02 14.66 18 15 C17.794 14.381 17.588 13.763 17.375 13.125 C16 11 16 11 13.562 9.75 C9.447 8.884 5.678 8.894 1.488 9.027 C-1 9 -1 9 -4 8 C-4.688 5.938 -4.688 5.938 -5 4 C2.429 5 2.429 5 6 6 C6 5.34 6 4.68 6 4 C4.02 3.34 2.04 2.68 0 2 C0 1.34 0 0.68 0 0 Z " fill="#F7652C" transform="translate(1105,72)"/>
<path d="M0 0 C0.33 0 0.66 0 1 0 C1 1.98 1 3.96 1 6 C0.34 6 -0.32 6 -1 6 C-1.66 9.3 -2.32 12.6 -3 16 C-4.32 16.33 -5.64 16.66 -7 17 C-7.072 17.382 -7.072 17.382 -7.438 19.312 C-8 22 -8 22 -9 25 C-9.99 25 -10.98 25 -12 25 C-12.33 25.99 -12.66 26.98 -13 28 C-13.66 27.67 -14.32 27.34 -15 27 C-15.33 27.66 -15.66 28.32 -16 29 C-18.941 29.633 -18.941 29.633 -22.562 30.125 C-23.76 30.293 -24.958 30.46 -26.191 30.633 C-27.118 30.754 -28.045 30.875 -29 31 C-27.499 27.997 -25.251 27.678 -22.188 26.438 C-21.129 26.003 -20.071 25.569 -18.98 25.121 C-16 24 -16 24 -13.738 23.598 C-12 23 -12 23 -10.93 21.195 C-10.623 20.471 -10.316 19.746 -10 19 C-9.057 17.615 -8.097 16.24 -7.125 14.875 C-3.941 10.185 -1.89 5.325 0 0 Z " fill="#E79475" transform="translate(1100,176)"/>
<path d="M0 0 C0.99 0.33 1.98 0.66 3 1 C2.988 1.664 2.977 2.328 2.965 3.012 C2.868 12.491 2.868 12.491 4 16 C4.66 16.33 5.32 16.66 6 17 C5.237 17.66 4.474 18.32 3.688 19 C0.432 22.209 -0.615 25.698 -2 30 C-2.33 30 -2.66 30 -3 30 C-3.027 28.396 -3.046 26.792 -3.062 25.188 C-3.074 24.294 -3.086 23.401 -3.098 22.48 C-3 20 -3 20 -2 17 C-1.34 17 -0.68 17 0 17 C0 11.39 0 5.78 0 0 Z " fill="#ED6E36" transform="translate(1105,154)"/>
<path d="M0 0 C0.66 0.33 1.32 0.66 2 1 C1.34 6.94 0.68 12.88 0 19 C-0.66 19 -1.32 19 -2 19 C-2.289 20.134 -2.578 21.269 -2.875 22.438 C-3.246 23.613 -3.618 24.789 -4 26 C-4.66 26.33 -5.32 26.66 -6 27 C-5.835 25.989 -5.67 24.979 -5.5 23.938 C-5 20 -5 20 -5.125 16.562 C-4.972 12.197 -3.703 8.97 -2 5 C-1.608 4.01 -1.216 3.02 -0.812 2 C-0.544 1.34 -0.276 0.68 0 0 Z " fill="#E8744A" transform="translate(1159,181)"/>
<path d="M0 0 C0.66 1.32 1.32 2.64 2 4 C1.01 4.66 0.02 5.32 -1 6 C-1 6.99 -1 7.98 -1 9 C-1.66 9 -2.32 9 -3 9 C-3.99 11.97 -4.98 14.94 -6 18 C-7.32 18 -8.64 18 -10 18 C-10 18.66 -10 19.32 -10 20 C-10.66 20 -11.32 20 -12 20 C-9.516 11.72 -6.403 5.821 0 0 Z " fill="#14171B" transform="translate(469,71)"/>
<path d="M0 0 C0.99 0 1.98 0 3 0 C5.903 3.65 7 5.259 7 10 C7.66 10 8.32 10 9 10 C9 10.66 9 11.32 9 12 C9.66 12 10.32 12 11 12 C11 14.64 11 17.28 11 20 C10.34 20 9.68 20 9 20 C8.518 19.024 8.036 18.048 7.539 17.043 C6.901 15.758 6.263 14.473 5.625 13.188 C5.308 12.545 4.991 11.902 4.664 11.24 C3.235 8.368 1.782 5.673 0 3 C0 2.01 0 1.02 0 0 Z " fill="#D55221" transform="translate(1096,134)"/>
<path d="M0 0 C2.221 2.221 3.086 4.085 4.383 6.938 C4.828 7.915 5.272 8.892 5.73 9.898 C6.191 10.922 6.651 11.945 7.125 13 C7.593 14.024 8.061 15.047 8.543 16.102 C12 23.741 12 23.741 12 26 C10.68 26.33 9.36 26.66 8 27 C8 26.01 8 25.02 8 24 C7.67 23.34 7.34 22.68 7 22 C6.568 19.342 6.302 16.677 6 14 C5.01 14 4.02 14 3 14 C3 13.01 3 12.02 3 11 C2.34 11 1.68 11 1 11 C0.442 9.736 -0.096 8.464 -0.625 7.188 C-0.927 6.48 -1.228 5.772 -1.539 5.043 C-1.691 4.369 -1.843 3.695 -2 3 C-1.34 2.01 -0.68 1.02 0 0 Z " fill="#12171C" transform="translate(339,129)"/>
<path d="M0 0 C0.99 0 1.98 0 3 0 C2.794 0.598 2.587 1.196 2.375 1.812 C2 4 2 4 4 7 C4 8.32 4 9.64 4 11 C4.66 11 5.32 11 6 11 C6 11.99 6 12.98 6 14 C6.99 14 7.98 14 9 14 C9 15.65 9 17.3 9 19 C8.67 17.68 8.34 16.36 8 15 C5.133 15.573 4.139 15.861 2 18 C1.3 16.736 0.616 15.463 -0.062 14.188 C-0.445 13.48 -0.828 12.772 -1.223 12.043 C-2 10 -2 10 -1 7 C-0.67 6.34 -0.34 5.68 0 5 C0.04 3.334 0.044 1.666 0 0 Z " fill="#040507" transform="translate(336,129)"/>
<path d="M0 0 C1.65 0 3.3 0 5 0 C5.125 2.375 5.125 2.375 5 5 C4.34 5.66 3.68 6.32 3 7 C3.165 7.495 3.165 7.495 4 10 C3.67 10.99 3.34 11.98 3 13 C2.34 13 1.68 13 1 13 C0.67 11.02 0.34 9.04 0 7 C-10.23 7 -20.46 7 -31 7 C-31 6.67 -31 6.34 -31 6 C-21.1 6 -11.2 6 -1 6 C-1 5.34 -1 4.68 -1 4 C-0.34 4 0.32 4 1 4 C0.67 2.68 0.34 1.36 0 0 Z " fill="#34373C" transform="translate(587,112)"/>
<path d="M0 0 C1.176 -0.003 2.351 -0.005 3.562 -0.008 C6.797 0.117 9.825 0.515 13 1.125 C12.67 2.115 12.34 3.105 12 4.125 C9.69 4.125 7.38 4.125 5 4.125 C5.33 3.135 5.66 2.145 6 1.125 C-1.75 1.875 -1.75 1.875 -4 4.125 C-8.445 5.649 -11.636 4.58 -16 3.125 C-11.012 -0.2 -5.87 -0.013 0 0 Z " fill="#121417" transform="translate(273,64.875)"/>
<path d="M0 0 C1.158 3.443 1.072 3.849 -0.625 7.391 C-1.402 8.686 -2.194 9.972 -3 11.25 C-3.205 11.583 -3.205 11.583 -4.24 13.268 C-7.377 18.267 -10.832 22.805 -15 27 C-15.33 25.68 -15.66 24.36 -16 23 C-16.66 23 -17.32 23 -18 23 C-17.67 21.68 -17.34 20.36 -17 19 C-16.67 19.99 -16.34 20.98 -16 22 C-14.125 21.375 -14.125 21.375 -12 20 C-11.309 18.008 -10.641 16.008 -10 14 C-9.01 13.67 -8.02 13.34 -7 13 C-5.43 10.82 -5.43 10.82 -3.875 8.125 C-3.357 7.241 -2.839 6.356 -2.305 5.445 C-1 3 -1 3 0 0 Z " fill="#D97A4B" transform="translate(1152,205)"/>
<path d="M0 0 C0.407 0.001 0.407 0.001 2.467 0.004 C5.055 0.01 7.643 0.022 10.23 0.035 C11.99 0.04 13.75 0.045 15.51 0.049 C19.813 0.06 24.115 0.077 28.418 0.098 C28.418 0.428 28.418 0.758 28.418 1.098 C27.485 1.123 26.553 1.148 25.592 1.174 C22.104 1.269 18.618 1.368 15.131 1.47 C13.626 1.513 12.122 1.555 10.618 1.595 C8.446 1.653 6.274 1.717 4.102 1.781 C2.798 1.818 1.494 1.855 0.15 1.892 C-5.183 2.186 -10.362 2.99 -15.582 4.098 C-15.582 4.758 -15.582 5.418 -15.582 6.098 C-16.902 6.098 -18.222 6.098 -19.582 6.098 C-19.582 5.438 -19.582 4.778 -19.582 4.098 C-12.882 0.514 -7.526 -0.05 0 0 Z " fill="#E09271" transform="translate(891.58203125,64.90234375)"/>
<path d="M0 0 C0.688 1.688 0.688 1.688 1 4 C-0.148 6.244 -1.21 8.21 -3 10 C-3.072 11.686 -3.084 13.375 -3.062 15.062 C-3.058 15.522 -3.058 15.522 -3.035 17.848 C-3.024 18.558 -3.012 19.268 -3 20 C-4.32 20 -5.64 20 -7 20 C-7.66 20.99 -8.32 21.98 -9 23 C-9.66 23 -10.32 23 -11 23 C-9.208 18.308 -7.078 13.79 -4.938 9.25 C-4.573 8.47 -4.209 7.69 -3.834 6.887 C-3.66 6.516 -3.66 6.516 -2.777 4.641 C-2.46 3.965 -2.143 3.29 -1.816 2.595 C-1 1 -1 1 0 0 Z " fill="#EC8D66" transform="translate(863,80)"/>
<path d="M0 0 C0 0.66 0 1.32 0 2 C0.953 1.977 1.905 1.954 2.887 1.93 C4.141 1.912 5.395 1.894 6.688 1.875 C7.308 1.863 7.308 1.863 10.449 1.805 C13.856 1.992 15.941 2.598 19 4 C20.992 4.376 22.992 4.72 25 5 C25 5.66 25 6.32 25 7 C23.742 7.041 22.484 7.082 21.188 7.125 C20.48 7.148 19.772 7.171 19.043 7.195 C17 7 17 7 14 5 C11.778 4.752 9.546 4.597 7.312 4.5 C1.926 4.193 -2.842 3.547 -8 2 C-4.772 -0.152 -3.716 -0.201 0 0 Z " fill="#DF4C19" transform="translate(1080,67)"/>
<path d="M0 0 C12.54 0 25.08 0 38 0 C38 0.33 38 0.66 38 1 C31.73 1.165 31.73 1.165 0 2 C-0.33 2.99 -0.66 3.98 -1 5 C-2.956 6.397 -4.954 7.738 -7 9 C-6.67 6.69 -6.34 4.38 -6 2 C-4.35 2.33 -2.7 2.66 -1 3 C-0.67 2.01 -0.34 1.02 0 0 Z " fill="#ED8E65" transform="translate(914,263)"/>
<path d="M0 0 C2.27 3.405 3.405 6.827 4.625 10.688 C4.74 11.029 4.74 11.029 5.32 12.756 C6.879 17.669 7.22 21.849 7 27 C6.34 27 5.68 27 5 27 C4.67 24.03 4.34 21.06 4 18 C3.34 18 2.68 18 2 18 C2.33 15.03 2.66 12.06 3 9 C2.34 9 1.68 9 1 9 C1 8.01 1 7.02 1 6 C0.34 6 -0.32 6 -1 6 C-0.67 4.02 -0.34 2.04 0 0 Z " fill="#DA7149" transform="translate(1154,117)"/>
<path d="M0 0 C4.116 3.506 6.906 8.046 9 13 C8.67 13.66 8.34 14.32 8 15 C7.01 15 6.02 15 5 15 C4.67 15.99 4.34 16.98 4 18 C3.34 17.67 2.68 17.34 2 17 C2.227 16.361 2.454 15.721 2.688 15.062 C3.08 11.215 2.05 8.655 0.691 5.086 C0 3 0 3 0 0 Z " fill="#0D0F11" transform="translate(318,86)"/>
<path d="M0 0 C0.66 0.66 1.32 1.32 2 2 C1.598 2.392 1.598 2.392 -0.438 4.375 C-3 7 -3 7 -4 9 C-3.34 9.66 -2.68 10.32 -2 11 C-9.429 13.143 -9.429 13.143 -13 14 C-9.771 8.705 -5.671 2.835 0 0 Z " fill="#181A1E" transform="translate(239,76)"/>
<path d="M0 0 C0.33 0 0.66 0 1 0 C1.33 2.31 1.66 4.62 2 7 C1.34 7 0.68 7 0 7 C-0.268 7.846 -0.536 8.691 -0.812 9.562 C-1.204 10.697 -1.596 11.831 -2 13 C-2.218 13.634 -2.436 14.268 -2.66 14.922 C-3.375 16.812 -3.375 16.812 -5 20 C-7.102 20.699 -7.102 20.699 -9 21 C-6.767 13.556 -3.597 6.88 0 0 Z " fill="#1B1D21" transform="translate(196,153)"/>
<path d="M0 0 C2.703 3.296 4.419 6.756 6.188 10.625 C6.717 11.772 7.247 12.92 7.793 14.102 C9 17 9 17 9 19 C7.68 19 6.36 19 5 19 C4.492 17.753 3.994 16.503 3.5 15.25 C3.222 14.554 2.943 13.858 2.656 13.141 C2 11 2 11 2 7 C1.34 7 0.68 7 0 7 C0 4.69 0 2.38 0 0 Z " fill="#12171F" transform="translate(432,332)"/>
<path d="M0 0 C0.33 0.66 0.66 1.32 1 2 C1.66 2 2.32 2 3 2 C3 2.66 3 3.32 3 4 C4.32 4 5.64 4 7 4 C7 4.66 7 5.32 7 6 C13.27 6 19.54 6 26 6 C26 6.33 26 6.66 26 7 C16.76 7 7.52 7 -2 7 C-1.34 4.69 -0.68 2.38 0 0 Z " fill="#2F333D" transform="translate(448,112)"/>
<path d="M0 0 C0.124 0.619 0.248 1.238 0.375 1.875 C1 4 1 4 3 6 C2.67 6.66 2.34 7.32 2 8 C2.99 8 3.98 8 5 8 C5.33 9.65 5.66 11.3 6 13 C2.7 13 -0.6 13 -4 13 C-3.67 11.68 -3.34 10.36 -3 9 C-2.67 9.99 -2.34 10.98 -2 12 C-1.34 12 -0.68 12 0 12 C-0.186 11.474 -0.186 11.474 -1.125 8.812 C-2.043 4.814 -1.914 3.509 0 0 Z " fill="#040408" transform="translate(346,147)"/>
<path d="M0 0 C1.65 0 3.3 0 5 0 C2.871 4.005 0.568 6.468 -3 9.25 C-3.866 9.936 -4.733 10.622 -5.625 11.328 C-8 13 -8 13 -11 14 C-11 12.68 -11 11.36 -11 10 C-9.02 9.67 -7.04 9.34 -5 9 C-4.67 7.35 -4.34 5.7 -4 4 C-3.01 4 -2.02 4 -1 4 C-0.67 2.68 -0.34 1.36 0 0 Z " fill="#DA8355" transform="translate(1131,232)"/>
<path d="M0 0 C0 3.46 -0.321 6.605 -1 10 C-1.99 10.66 -2.98 11.32 -4 12 C-4.257 14.026 -4.51 16.055 -4.684 18.09 C-5 20 -5 20 -6.562 22 C-7.037 22.33 -7.511 22.66 -8 23 C-9.176 14.603 -5.009 8.085 -1 1 C-0.67 0.67 -0.34 0.34 0 0 Z " fill="#E99A81" transform="translate(854,230)"/>
<path d="M0 0 C2.64 0 5.28 0 8 0 C7.667 1.333 7.333 2.667 7 4 C6.835 4.701 6.67 5.403 6.5 6.125 C6 8 6 8 5 10 C4.34 10 3.68 10 3 10 C2.67 10.66 2.34 11.32 2 12 C2 11.34 2 10.68 2 10 C1.34 9.67 0.68 9.34 0 9 C0 8.34 0 7.68 0 7 C0.66 7 1.32 7 2 7 C1.67 6.67 1.34 6.34 1 6 C0 3 0 3 0 0 Z " fill="#050507" transform="translate(208,240)"/>
<path d="M0 0 C1 3 1 3 1 6 C0.34 6 -0.32 6 -1 6 C-0.67 7.32 -0.34 8.64 0 10 C-0.66 10 -1.32 10 -2 10 C-2.33 11.32 -2.66 12.64 -3 14 C-3 13.34 -3 12.68 -3 12 C-3.66 12 -4.32 12 -5 12 C-6.109 8.573 -6.069 7.179 -4.75 3.75 C-3 1 -3 1 0 0 Z " fill="#111216" transform="translate(127,305)"/>
<path d="M0 0 C2.388 3.644 1.943 6.069 1.125 10.25 C0.921 11.328 0.718 12.405 0.508 13.516 C0.34 14.335 0.173 15.155 0 16 C-0.66 15.01 -1.32 14.02 -2 13 C-2.66 13.33 -2.66 13.33 -6 15 C-4.36 9.767 -2.61 4.848 0 0 Z " fill="#16171C" transform="translate(206,131)"/>
<path d="M0 0 C2.64 0 5.28 0 8 0 C8.33 0.99 8.66 1.98 9 3 C11.062 4.188 11.062 4.188 13 5 C11.42 5.25 9.836 5.474 8.25 5.688 C7.368 5.815 6.487 5.943 5.578 6.074 C2.443 5.984 1.282 5.074 -1 3 C-0.67 2.01 -0.34 1.02 0 0 Z " fill="#050306" transform="translate(271,66)"/>
<path d="M0 0 C0.66 0 1.32 0 2 0 C3.171 2.456 4.337 4.915 5.5 7.375 C5.667 7.724 5.667 7.724 6.512 9.492 C9 14.773 9 14.773 9 17 C5.938 15.979 4.853 15.559 3 13 C2.812 9.812 2.812 9.812 3 7 C2.34 7 1.68 7 1 7 C0.67 4.69 0.34 2.38 0 0 Z " fill="#161A23" transform="translate(423,314)"/>
<path d="M0 0 C0.309 0.093 0.309 0.093 1.875 0.562 C4 1 4 1 6 0 C8.125 6.75 8.125 6.75 7 9 C5.68 9 4.36 9 3 9 C3 8.34 3 7.68 3 7 C2.34 7 1.68 7 1 7 C1 6.01 1 5.02 1 4 C0.34 3.67 -0.32 3.34 -1 3 C-0.67 2.01 -0.34 1.02 0 0 Z " fill="#030408" transform="translate(352,288)"/>
<path d="M0 0 C0.99 0.33 1.98 0.66 3 1 C2.859 3.459 2.713 5.917 2.562 8.375 C2.543 8.724 2.543 8.724 2.443 10.492 C2.113 15.773 2.113 15.773 1 18 C0.34 18 -0.32 18 -1 18 C-1.33 18.99 -1.66 19.98 -2 21 C-2 19.68 -2 18.36 -2 17 C-1.34 17 -0.68 17 0 17 C0 11.39 0 5.78 0 0 Z " fill="#E06330" transform="translate(1105,154)"/>
<path d="M0 0 C3 1 3 1 4.422 3.18 C4.86 4.069 5.298 4.959 5.75 5.875 C6.199 6.759 6.647 7.644 7.109 8.555 C8 11 8 11 7 14 C6.34 14 5.68 14 5 14 C4.67 14.66 4.34 15.32 4 16 C1.714 7.571 1.714 7.571 2 3 C1.34 3 0.68 3 0 3 C0 2.01 0 1.02 0 0 Z " fill="#13151E" transform="translate(384,231)"/>
<path d="M0 0 C2.83 3.383 4.503 7.091 6.188 11.125 C6.46 11.758 6.733 12.391 7.014 13.043 C9 17.732 9 17.732 9 20 C8.01 19.67 7.02 19.34 6 19 C6 17.35 6 15.7 6 14 C5.34 14 4.68 14 4 14 C0.551 9.723 0.334 5.281 0 0 Z " fill="#131921" transform="translate(369,195)"/>
<path d="M0 0 C0.33 0 0.66 0 1 0 C1.749 3.663 2.238 6.424 1 10 C0.34 10 -0.32 10 -1 10 C-1 10.99 -1 11.98 -1 13 C-1.99 13.33 -2.98 13.66 -4 14 C-5.065 11.27 -5.08 10.207 -4.004 7.422 C-3.528 6.54 -3.053 5.658 -2.562 4.75 C-2.089 3.858 -1.616 2.966 -1.129 2.047 C-0.756 1.371 -0.384 0.696 0 0 Z " fill="#181A1E" transform="translate(132,290)"/>
<path d="M0 0 C5 2 5 2 7 4 C7.379 5.875 7.379 5.875 7.562 8 C7.777 10.38 7.923 11.847 9 14 C8.34 14.66 7.68 15.32 7 16 C4.69 10.72 2.38 5.44 0 0 Z " fill="#171B24" transform="translate(319,222)"/>
<path d="M0 0 C0.799 0.195 1.598 0.389 2.422 0.59 C2.724 0.668 2.724 0.668 4.25 1.062 C4.25 1.392 4.25 1.722 4.25 2.062 C9.53 2.392 14.81 2.722 20.25 3.062 C20.25 3.392 20.25 3.722 20.25 4.062 C16.458 4.12 12.667 4.156 8.875 4.188 C8.335 4.196 8.335 4.196 5.602 4.238 C4.57 4.245 3.539 4.251 2.477 4.258 C2 4.263 2 4.263 -0.412 4.29 C-2.75 4.062 -2.75 4.062 -4.75 2.062 C-6.067 1.365 -7.399 0.693 -8.75 0.062 C-5.478 -1.011 -3.321 -0.83 0 0 Z " fill="#18171E" transform="translate(655.75,114.9375)"/>
<path d="M0 0 C2.31 0.33 4.62 0.66 7 1 C7 1.66 7 2.32 7 3 C7.99 3.33 8.98 3.66 10 4 C9.67 5.32 9.34 6.64 9 8 C6.75 7.938 6.75 7.938 4 7 C2.322 4.769 1.24 2.526 0 0 Z " fill="#0B0E16" transform="translate(381,360)"/>
<path d="M0 0 C0.99 0.99 1.98 1.98 3 3 C1.854 6.438 0.442 9.676 -1 13 C-2.32 13 -3.64 13 -5 13 C-3.582 8.528 -1.887 4.289 0 0 Z " fill="#1B1F24" transform="translate(148,255)"/>
<path d="M0 0 C0.353 0.109 0.353 0.109 2.141 0.66 C3.888 0.875 5.638 1.061 7.391 1.223 C8.283 1.306 9.175 1.39 10.094 1.477 C10.769 1.537 11.445 1.598 12.141 1.66 C11.811 2.32 11.481 2.98 11.141 3.66 C8.418 4.074 8.418 4.074 5.078 4.285 C3.973 4.36 2.869 4.435 1.73 4.512 C0.876 4.561 0.021 4.61 -0.859 4.66 C-0.859 4 -0.859 3.34 -0.859 2.66 C-2.179 2.33 -3.499 2 -4.859 1.66 C-1.859 -0.34 -1.859 -0.34 0 0 Z " fill="#E98B58" transform="translate(878.859375,212.33984375)"/>
<path d="M0 0 C3.626 2.418 3.889 3.899 5 8 C5 8.66 5 9.32 5 10 C4.01 10.33 3.02 10.66 2 11 C1.34 10.67 0.68 10.34 0 10 C-0.891 6.355 -1.237 3.573 0 0 Z " fill="#050309" transform="translate(425,326)"/>
<path d="M0 0 C2 3 2 3 1.539 5.699 C1.237 6.685 0.936 7.671 0.625 8.688 C0.329 9.681 0.032 10.675 -0.273 11.699 C-0.513 12.458 -0.753 13.218 -1 14 C-2.32 14.33 -3.64 14.66 -5 15 C-1.925 4.442 -1.925 4.442 0 0 Z " fill="#151C23" transform="translate(454,97)"/>
<path d="M0 0 C0.66 0 1.32 0 2 0 C2.864 1.787 3.716 3.58 4.562 5.375 C4.8 5.874 4.8 5.874 6.004 8.398 C6.333 9.257 6.661 10.115 7 11 C6.67 11.66 6.34 12.32 6 13 C5.34 12.67 4.68 12.34 4 12 C4 10.35 4 8.7 4 7 C3.175 6.67 3.175 6.67 -1 5 C-0.67 3.35 -0.34 1.7 0 0 Z " fill="#121620" transform="translate(416,299)"/>
<path d="M0 0 C3.982 3.982 3.982 3.982 4.062 8.625 C4.042 9.739 4.021 10.852 4 12 C2.68 12.33 1.36 12.66 0 13 C0 8.71 0 4.42 0 0 Z " fill="#060506" transform="translate(384,236)"/>
<path d="M0 0 C2.208 -0.027 4.417 -0.046 6.625 -0.062 C7.855 -0.074 9.085 -0.086 10.352 -0.098 C13.677 -0.009 16.74 0.363 20 1 C19.67 1.99 19.34 2.98 19 4 C16.69 4 14.38 4 12 4 C12.33 3.01 12.66 2.02 13 1 C8.71 1 4.42 1 0 1 C0 0.67 0 0.34 0 0 Z " fill="#252B2E" transform="translate(266,65)"/>
<path d="M0 0 C0.66 0.33 1.32 0.66 2 1 C-1.803 4.35 -5.251 7.057 -10 9 C-10.66 8.67 -11.32 8.34 -12 8 C-9.809 4.713 -8.47 3.965 -5 2.25 C-4.113 1.801 -3.226 1.353 -2.312 0.891 C-1.549 0.597 -0.786 0.303 0 0 Z " fill="#E69879" transform="translate(872,215)"/>
<path d="M0 0 C1.238 3.576 0.749 6.337 0 10 C-0.66 10 -1.32 10 -2 10 C-2.289 11.134 -2.578 12.269 -2.875 13.438 C-3.246 14.613 -3.618 15.789 -4 17 C-4.66 17.33 -5.32 17.66 -6 18 C-5.34 14.37 -4.68 10.74 -4 7 C-3.01 7.33 -2.02 7.66 -1 8 C-0.67 5.36 -0.34 2.72 0 0 Z " fill="#F4B792" transform="translate(1159,190)"/>
<path d="M0 0 C0.33 1.32 0.66 2.64 1 4 C0.34 4 -0.32 4 -1 4 C-0.794 4.557 -0.587 5.114 -0.375 5.688 C0.107 8.66 -0.734 10.32 -2 13 C-2.99 13 -3.98 13 -5 13 C-4.393 8.14 -2.272 4.259 0 0 Z " fill="#E89779" transform="translate(851,104)"/>
<path d="M0 0 C0.99 0 1.98 0 3 0 C0.109 9.595 0.109 9.595 -3 13 C-3.383 7.768 -2.219 4.622 0 0 Z " fill="#18181C" transform="translate(772,96)"/>
<path d="M0 0 C4.835 2.611 8.871 5.375 13 9 C12.01 9.33 11.02 9.66 10 10 C9.01 9.34 8.02 8.68 7 8 C7 7.34 7 6.68 7 6 C6.031 5.752 5.061 5.505 4.062 5.25 C3.052 4.838 2.041 4.425 1 4 C0.125 1.875 0.125 1.875 0 0 Z " fill="#B65537" transform="translate(1123,81)"/>
<path d="M0 0 C0.33 0.66 0.66 1.32 1 2 C1.99 2.33 2.98 2.66 4 3 C3.34 3 2.68 3 2 3 C2.33 4.32 2.66 5.64 3 7 C2.34 7 1.68 7 1 7 C0.67 7.66 0.34 8.32 0 9 C-0.99 8.67 -1.98 8.34 -3 8 C-1.125 2.25 -1.125 2.25 0 0 Z " fill="#1C1F21" transform="translate(140,273)"/>
<path d="M0 0 C0.99 0.66 1.98 1.32 3 2 C2.67 2.99 2.34 3.98 2 5 C1.34 5 0.68 5 0 5 C0.33 5.99 0.66 6.98 1 8 C-0.65 8 -2.3 8 -4 8 C-3.502 4.312 -2.899 2.395 0 0 Z " fill="#E9865D" transform="translate(859,224)"/>
<path d="M0 0 C0.99 0.33 1.98 0.66 3 1 C1.064 7.702 1.064 7.702 -2 10 C-2.66 10 -3.32 10 -4 10 C-2.891 6.513 -1.737 3.225 0 0 Z " fill="#202326" transform="translate(163,223)"/>
<path d="M0 0 C1.361 2.242 2.061 3.478 1.75 6.125 C1 8 1 8 -1 10 C-1.99 10 -2.98 10 -4 10 C-2.891 6.513 -1.737 3.225 0 0 Z " fill="#191D21" transform="translate(168,213)"/>
<path d="M0 0 C1.938 0.75 1.938 0.75 4 2 C4.362 3.326 4.697 4.659 5 6 C5.99 6.33 6.98 6.66 8 7 C8 7.99 8 8.98 8 10 C8.66 10 9.32 10 10 10 C9.67 10.99 9.34 11.98 9 13 C9 12.34 9 11.68 9 11 C8.34 11 7.68 11 7 11 C7 10.01 7 9.02 7 8 C6.402 7.979 5.804 7.959 5.188 7.938 C3 7 3 7 1.25 3.438 C0.838 2.303 0.425 1.169 0 0 Z " fill="#DE4E1E" transform="translate(1144,107)"/>
<path d="M0 0 C2.947 2.744 5.192 5.383 7 9 C6.67 9.66 6.34 10.32 6 11 C4.68 10.67 3.36 10.34 2 10 C1.34 6.7 0.68 3.4 0 0 Z " fill="#1B1F25" transform="translate(318,86)"/>
<path d="M0 0 C1.485 0.33 1.485 0.33 9 2 C9.124 2.804 9.247 3.609 9.375 4.438 C9.581 5.283 9.787 6.129 10 7 C10.66 7.33 11.32 7.66 12 8 C11.01 8.33 10.02 8.66 9 9 C8.907 8.711 8.907 8.711 8.438 7.25 C6.294 3.896 3.512 2.821 0 1 C0 0.67 0 0.34 0 0 Z " fill="#D34B19" transform="translate(1114,78)"/>
<path d="M0 0 C2.64 0 5.28 0 8 0 C8.33 1.32 8.66 2.64 9 4 C7.68 4.33 6.36 4.66 5 5 C5 4.34 5 3.68 5 3 C4.01 3.33 3.02 3.66 2 4 C2 3.34 2 2.68 2 2 C1.34 2 0.68 2 0 2 C0 1.34 0 0.68 0 0 Z " fill="#EE5A20" transform="translate(1102,74)"/>
<path d="M0 0 C1.32 0.33 2.64 0.66 4 1 C4.625 4.375 4.625 4.375 5 8 C4.34 8.66 3.68 9.32 3 10 C0.966 6.27 0 4.331 0 0 Z " fill="#161A20" transform="translate(343,272)"/>
<path d="M0 0 C2.625 0.688 2.625 0.688 5 2 C5.33 2.99 5.66 3.98 6 5 C6.66 5 7.32 5 8 5 C7.67 5.66 7.34 6.32 7 7 C3.7 5.35 0.4 3.7 -3 2 C-2.01 1.34 -1.02 0.68 0 0 Z " fill="#EB8557" transform="translate(1079,121)"/>
<path d="M0 0 C1.644 3.287 2.413 5.479 3 9 C1 9 -1 9 -3 9 C-2.01 6.03 -1.02 3.06 0 0 Z " fill="#1A1B20" transform="translate(220,100)"/>
<path d="M0 0 C0 0.66 0 1.32 0 2 C-0.33 2.165 -0.33 2.165 -2 3 C-2.727 4.979 -3.398 6.98 -4 9 C-5.32 9 -6.64 9 -8 9 C-6.69 5.07 -4.75 0 0 0 Z " fill="#E88D69" transform="translate(872,71)"/>
<path d="M0 0 C0.66 0 1.32 0 2 0 C2 0.66 2 1.32 2 2 C2.66 2 3.32 2 4 2 C4 4.64 4 7.28 4 10 C3.34 10 2.68 10 2 10 C1.34 6.7 0.68 3.4 0 0 Z " fill="#D54C20" transform="translate(1103,144)"/>
<path d="M0 0 C5.75 0.75 5.75 0.75 8 3 C8.125 5.625 8.125 5.625 8 8 C7.67 7.34 7.34 6.68 7 6 C6.381 5.711 5.763 5.423 5.125 5.125 C2.632 3.805 1.549 2.323 0 0 Z " fill="#D9653E" transform="translate(1088,128)"/>
<path d="M0 0 C3.679 3.285 5.752 6.664 8 11 C8 11.66 8 12.32 8 13 C7.34 13 6.68 13 6 13 C5.67 12.01 5.34 11.02 5 10 C4.34 9.67 3.68 9.34 3 9 C2.148 6.934 2.148 6.934 1.375 4.438 C1.115 3.611 0.854 2.785 0.586 1.934 C0.393 1.296 0.199 0.657 0 0 Z " fill="#B85F3C" transform="translate(1146,104)"/>
<path d="M0 0 C5.299 1.298 9.345 3.15 14 6 C10.71 7.097 9.287 6.8 6 6 C6 5.34 6 4.68 6 4 C4.02 3.34 2.04 2.68 0 2 C0 1.34 0 0.68 0 0 Z " fill="#CC613F" transform="translate(1105,72)"/>
<path d="M0 0 C-1.477 4.677 -1.477 4.677 -4.125 6.312 C-4.434 6.426 -4.434 6.426 -6 7 C-6.33 5.68 -6.66 4.36 -7 3 C-2.25 0 -2.25 0 0 0 Z " fill="#171B20" transform="translate(161,362)"/>
<path d="M0 0 C0.66 0.33 1.32 0.66 2 1 C1.01 3.97 0.02 6.94 -1 10 C-1.33 9.34 -1.66 8.68 -2 8 C-2.66 8 -3.32 8 -4 8 C-4 6.68 -4 5.36 -4 4 C-3.01 4.33 -2.02 4.66 -1 5 C-0.67 3.35 -0.34 1.7 0 0 Z " fill="#1A1C20" transform="translate(238,189)"/>
<path d="M0 0 C0.99 1.32 1.98 2.64 3 4 C2.34 5.32 1.68 6.64 1 8 C-0.32 8 -1.64 8 -3 8 C-1.125 2.25 -1.125 2.25 0 0 Z " fill="#1B1C21" transform="translate(184,179)"/>
<path d="M0 0 C2.228 2.228 2.692 3.658 3.625 6.625 C3.885 7.442 4.146 8.26 4.414 9.102 C4.607 9.728 4.801 10.355 5 11 C3.68 10.67 2.36 10.34 1 10 C0.066 6.99 -0.044 6.133 1 3 C0.34 2.67 -0.32 2.34 -1 2 C-0.67 1.34 -0.34 0.68 0 0 Z " fill="#14181D" transform="translate(331,111)"/>
<path d="M0 0 C0.66 0.66 1.32 1.32 2 2 C0.377 3.709 -1.293 5.374 -3 7 C-3.66 7 -4.32 7 -5 7 C-4.67 5.35 -4.34 3.7 -4 2 C-2.68 2 -1.36 2 0 2 C0 1.34 0 0.68 0 0 Z " fill="#15181A" transform="translate(641,362)"/>
<path d="M0 0 C2.875 -0.125 2.875 -0.125 6 0 C6.66 0.66 7.32 1.32 8 2 C7.625 4.125 7.625 4.125 7 6 C1.125 2.25 1.125 2.25 0 0 Z " fill="#1D1C21" transform="translate(272,129)"/>
<path d="M0 0 C0.33 0.99 0.66 1.98 1 3 C1.66 3.33 2.32 3.66 3 4 C1.688 6 1.688 6 0 8 C-0.99 8 -1.98 8 -3 8 C-1.125 2.25 -1.125 2.25 0 0 Z " fill="#131A1F" transform="translate(116,323)"/>
<path d="M0 0 C0.33 0.66 0.66 1.32 1 2 C1.66 2 2.32 2 3 2 C2.34 3.98 1.68 5.96 1 8 C0.01 7.67 -0.98 7.34 -2 7 C-1.34 4.69 -0.68 2.38 0 0 Z " fill="#19181E" transform="translate(136,281)"/>
<path d="M0 0 C0.99 0.33 1.98 0.66 3 1 C2.67 1.99 2.34 2.98 2 4 C2.66 4 3.32 4 4 4 C4 4.66 4 5.32 4 6 C4.99 6.33 5.98 6.66 7 7 C6.01 7 5.02 7 4 7 C3.67 7.66 3.34 8.32 3 9 C0 3.375 0 3.375 0 0 Z " fill="#1A1F25" transform="translate(351,291)"/>
<path d="M0 0 C0.99 0 1.98 0 3 0 C2.67 2.64 2.34 5.28 2 8 C0.262 5.393 -0.502 3.987 -1 1 C-0.67 0.67 -0.34 0.34 0 0 Z " fill="#13181D" transform="translate(339,261)"/>
<path d="M0 0 C1.777 2.666 2.875 5.028 4 8 C2.68 7.67 1.36 7.34 0 7 C-1.125 2.25 -1.125 2.25 0 0 Z " fill="#11141E" transform="translate(355,164)"/>
<path d="M0 0 C4 2 4 2 5.312 4.375 C6 7 6 7 5 11 C3.35 7.37 1.7 3.74 0 0 Z " fill="#C15434" transform="translate(1098,139)"/>
<path d="M0 0 C2.31 1.98 4.62 3.96 7 6 C6.34 6.66 5.68 7.32 5 8 C2.216 6.294 1.146 5.524 0.25 2.312 C0.168 1.549 0.085 0.786 0 0 Z " fill="#151C20" transform="translate(311,79)"/>
<path d="M0 0 C0.66 0.33 1.32 0.66 2 1 C1.427 3.867 1.139 4.861 -1 7 C-2 6 -2 6 -2.062 3.438 C-2.042 2.633 -2.021 1.829 -2 1 C-1.34 0.67 -0.68 0.34 0 0 Z " fill="#11171C" transform="translate(162,355)"/>
<path d="M0 0 C0.99 0 1.98 0 3 0 C3.33 1.65 3.66 3.3 4 5 C3.34 5 2.68 5 2 5 C1.67 5.66 1.34 6.32 1 7 C0.34 5.02 -0.32 3.04 -1 1 C-0.67 0.67 -0.34 0.34 0 0 Z " fill="#121419" transform="translate(379,353)"/>
<path d="M0 0 C0.66 0 1.32 0 2 0 C0.844 3.912 -0.355 6.875 -3 10 C-3.364 5.758 -2.539 3.418 0 0 Z " fill="#21262A" transform="translate(172,335)"/>
<path d="M0 0 C-4.625 3 -4.625 3 -8 3 C-8.33 2.01 -8.66 1.02 -9 0 C-5.622 -0.845 -3.325 -1.108 0 0 Z " fill="#E58D66" transform="translate(1112,252)"/>
<path d="M0 0 C0.66 0.33 1.32 0.66 2 1 C1.469 4.821 0.503 7.062 -2 10 C-2.33 9.01 -2.66 8.02 -3 7 C-2.34 7 -1.68 7 -1 7 C-1.021 6.031 -1.041 5.061 -1.062 4.062 C-1 1 -1 1 0 0 Z " fill="#191A1D" transform="translate(214,243)"/>
<path d="M0 0 C3 3.75 3 3.75 3 6 C2.34 6 1.68 6 1 6 C0.67 6.99 0.34 7.98 0 9 C0 8.34 0 7.68 0 7 C-0.66 7 -1.32 7 -2 7 C-1.34 4.69 -0.68 2.38 0 0 Z " fill="#1B1F22" transform="translate(171,206)"/>
<path d="M0 0 C0.99 0.33 1.98 0.66 3 1 C3 1.66 3 2.32 3 3 C3.66 3.33 4.32 3.66 5 4 C3.68 4.99 2.36 5.98 1 7 C0.313 4.509 0 2.621 0 0 Z " fill="#17181A" transform="translate(265,129)"/>
<path d="M0 0 C1.062 1.812 1.062 1.812 2 4 C1.67 4.99 1.34 5.98 1 7 C-1.062 7.688 -1.062 7.688 -3 8 C-1.125 2.25 -1.125 2.25 0 0 Z " fill="#21252B" transform="translate(212,118)"/>
<path d="M0 0 C3.796 0.542 5.472 2.201 8 5 C7.67 5.99 7.34 6.98 7 8 C3.757 5.61 1.491 3.795 0 0 Z " fill="#DC471A" transform="translate(1126,86)"/>
<path d="M0 0 C3.949 0.551 7.349 1.389 11 3 C11 3.33 11 3.66 11 4 C9.541 3.913 8.082 3.805 6.625 3.688 C5.813 3.629 5.001 3.571 4.164 3.512 C2 3 2 3 0 0 Z " fill="#D07051" transform="translate(1093,68)"/>
<path d="M0 0 C1.32 0.33 2.64 0.66 4 1 C3.494 3.169 3 5 2 7 C1.34 6.67 0.68 6.34 0 6 C0 4.02 0 2.04 0 0 Z " fill="#030408" transform="translate(440,357)"/>
<path d="M0 0 C0.66 0 1.32 0 2 0 C2.99 2.31 3.98 4.62 5 7 C4.34 7.66 3.68 8.32 3 9 C0 3.375 0 3.375 0 0 Z " fill="#21282E" transform="translate(323,229)"/>
<path d="M0 0 C1.991 2.986 2.941 5.597 4 9 C3.01 9 2.02 9 1 9 C1.33 8.34 1.66 7.68 2 7 C1.34 7 0.68 7 0 7 C0 4.69 0 2.38 0 0 Z " fill="#181922" transform="translate(351,155)"/>
<path d="M0 0 C1.062 1.812 1.062 1.812 2 4 C1.67 4.99 1.34 5.98 1 7 C-1.062 7.688 -1.062 7.688 -3 8 C-1.125 2.25 -1.125 2.25 0 0 Z " fill="#252B31" transform="translate(206,131)"/>
<path d="M0 0 C3.167 1.584 4.733 2.453 6.312 5.688 C6.539 6.451 6.766 7.214 7 8 C6.01 7.67 5.02 7.34 4 7 C3.667 5.667 3.333 4.333 3 3 C2.01 2.67 1.02 2.34 0 2 C0 1.34 0 0.68 0 0 Z " fill="#CB420E" transform="translate(1140,100)"/>
<path d="M0 0 C0.66 0 1.32 0 2 0 C2 0.99 2 1.98 2 3 C2.66 3 3.32 3 4 3 C3.67 4.65 3.34 6.3 3 8 C1.055 5.082 0.547 3.375 0 0 Z " fill="#1A1E24" transform="translate(375,346)"/>
<path d="M0 0 C1 3 1 3 1 6 C0.34 6 -0.32 6 -1 6 C-1 5.34 -1 4.68 -1 4 C-1.99 4.33 -2.98 4.66 -4 5 C-3.688 3.062 -3.688 3.062 -3 1 C-2.01 0.67 -1.02 0.34 0 0 Z " fill="#1C1C21" transform="translate(127,305)"/>
<path d="M0 0 C0.66 0 1.32 0 2 0 C1.25 5.75 1.25 5.75 -1 8 C-1.33 6.35 -1.66 4.7 -2 3 C-1.34 3 -0.68 3 0 3 C0 2.01 0 1.02 0 0 Z " fill="#171920" transform="translate(194,285)"/>
<path d="M0 0 C0.33 0 0.66 0 1 0 C1.33 1.98 1.66 3.96 2 6 C1.01 6 0.02 6 -1 6 C-1 6.66 -1 7.32 -1 8 C-1.66 8 -2.32 8 -3 8 C-1.125 2.25 -1.125 2.25 0 0 Z " fill="#1F2326" transform="translate(152,247)"/>
<path d="M0 0 C-5.176 3.223 -5.176 3.223 -7 4 C-7.99 3.67 -8.98 3.34 -10 3 C-8.68 2.67 -7.36 2.34 -6 2 C-6 1.34 -6 0.68 -6 0 C-3.509 -1.245 -2.589 -0.777 0 0 Z " fill="#D57952" transform="translate(1120,247)"/>
<path d="M0 0 C0.99 0.66 1.98 1.32 3 2 C2.01 3.98 1.02 5.96 0 8 C-0.66 7.67 -1.32 7.34 -2 7 C-2 6.01 -2 5.02 -2 4 C-1.34 4 -0.68 4 0 4 C0 2.68 0 1.36 0 0 Z " fill="#202226" transform="translate(222,225)"/>
<!-- particles as perfect circles -->
<circle cx="1187.8" cy="146.4" r="9.52" fill="#e49b74"/>
<circle cx="1231.1" cy="144.2" r="3.95" fill="#bf8a6a"/>
<circle cx="1235.0" cy="146.0" r="0.56" fill="#7d624f"/>
<circle cx="1204.1" cy="173.8" r="4.51" fill="#ad7f73"/>
<circle cx="1219.5" cy="180.9" r="2.59" fill="#a37977"/>
<circle cx="1186.4" cy="206.5" r="11.42" fill="#dda590"/>
<circle cx="1241.3" cy="207.1" r="5.01" fill="#ae7169"/>
<circle cx="1219.5" cy="233.4" r="7.2" fill="#c68f7a"/>
<circle cx="1176.4" cy="234.1" r="6.38" fill="#c09081"/>
<circle cx="1169.9" cy="258.9" r="7.09" fill="#d49a82"/>
<circle cx="1133.9" cy="260.4" r="10.59" fill="#e9ab87"/>
<circle cx="1236.8" cy="257.9" r="4.11" fill="#a27460"/>
<circle cx="1198.2" cy="260.0" r="3.78" fill="#b18d78"/>
<circle cx="1303.2" cy="256.8" r="1.38" fill="#885054"/>
<circle cx="1203.0" cy="257.0" r="0.56" fill="#a7937a"/>
<circle cx="1201.0" cy="258.0" r="0.56" fill="#794c35"/>
<circle cx="1204.0" cy="259.5" r="0.8" fill="#eacec1"/>
<circle cx="1203.0" cy="262.0" r="0.56" fill="#8b695f"/>
<circle cx="1151.2" cy="286.6" r="3.43" fill="#a98078"/>
<circle cx="1237.3" cy="285.5" r="2.99" fill="#c9a195"/>
<circle cx="1227.0" cy="288.7" r="2.65" fill="#b89384"/>
<circle cx="1178.1" cy="290.1" r="3.34" fill="#b78d78"/>
<circle cx="1100.1" cy="293.1" r="3.04" fill="#916451"/>
<circle cx="1183.0" cy="292.0" r="0.98" fill="#846352"/>
<circle cx="1181.5" cy="294.0" r="0.8" fill="#89675b"/>
<circle cx="1102.0" cy="297.0" r="0.56" fill="#b8968d"/>
<circle cx="1130.3" cy="323.2" r="7.74" fill="#d2896c"/>
<circle cx="1206.7" cy="320.7" r="5.2" fill="#b77c60"/>
<circle cx="1162.7" cy="323.4" r="5.14" fill="#bd8570"/>
<circle cx="1232.3" cy="322.2" r="3.39" fill="#b9897b"/>
<circle cx="1273.5" cy="321.3" r="2.03" fill="#9b5b5c"/>
<circle cx="1236.0" cy="324.0" r="0.56" fill="#7c504d"/>
<circle cx="1209.0" cy="325.0" r="0.56" fill="#9f7e6d"/>
<circle cx="1206.5" cy="326.0" r="0.8" fill="#9a7b70"/>
<circle cx="1152.6" cy="360.5" r="6.63" fill="#b97953"/>
<circle cx="1186.5" cy="359.8" r="5.61" fill="#b5725b"/>
</svg>