<svg xmlns="http://www.w3.org/2000/svg" viewBox="0 0 1056 1056" width="512" height="512" fill="none" role="img" aria-label="ATP icon">
  <rect width="1056" height="1056" rx="232" fill="#0A0A0A"/>
  <g fill="#FFFFFF"><path d="M512.0 402 L479.0 127 Q479.0 115 491.0 115 L565.0 115 Q577.0 115 577.0 127 L544.0 402 Q544.0 414 538.0 418 L518.0 418 Q512.0 414 512.0 402 Z" transform="rotate(0 528 528)"/><path d="M512.0 402 L479.0 127 Q479.0 115 491.0 115 L565.0 115 Q577.0 115 577.0 127 L544.0 402 Q544.0 414 538.0 418 L518.0 418 Q512.0 414 512.0 402 Z" transform="rotate(45 528 528)"/><path d="M512.0 402 L479.0 127 Q479.0 115 491.0 115 L565.0 115 Q577.0 115 577.0 127 L544.0 402 Q544.0 414 538.0 418 L518.0 418 Q512.0 414 512.0 402 Z" transform="rotate(90 528 528)"/><path d="M512.0 402 L479.0 127 Q479.0 115 491.0 115 L565.0 115 Q577.0 115 577.0 127 L544.0 402 Q544.0 414 538.0 418 L518.0 418 Q512.0 414 512.0 402 Z" transform="rotate(135 528 528)"/><path d="M512.0 402 L479.0 127 Q479.0 115 491.0 115 L565.0 115 Q577.0 115 577.0 127 L544.0 402 Q544.0 414 538.0 418 L518.0 418 Q512.0 414 512.0 402 Z" transform="rotate(180 528 528)"/><path d="M512.0 402 L479.0 127 Q479.0 115 491.0 115 L565.0 115 Q577.0 115 577.0 127 L544.0 402 Q544.0 414 538.0 418 L518.0 418 Q512.0 414 512.0 402 Z" transform="rotate(225 528 528)"/><path d="M512.0 402 L479.0 127 Q479.0 115 491.0 115 L565.0 115 Q577.0 115 577.0 127 L544.0 402 Q544.0 414 538.0 418 L518.0 418 Q512.0 414 512.0 402 Z" transform="rotate(270 528 528)"/><path d="M512.0 402 L479.0 127 Q479.0 115 491.0 115 L565.0 115 Q577.0 115 577.0 127 L544.0 402 Q544.0 414 538.0 418 L518.0 418 Q512.0 414 512.0 402 Z" transform="rotate(315 528 528)"/></g>
  <circle cx="528" cy="528" r="86" fill="#E8542A"/>
</svg>
